<?xml version="1.0" encoding="UTF-8" standalone="no"?>
<!-- Created with Inkscape (http://www.inkscape.org/) -->

<svg
   width="18.517467mm"
   height="18.457853mm"
   viewBox="0 0 18.517467 18.457853"
   version="1.1"
   id="svg1"
   xml:space="preserve"
   xmlns="http://www.w3.org/2000/svg"
   xmlns:svg="http://www.w3.org/2000/svg"><defs
     id="defs1" /><g
     id="layer1"
     transform="translate(-31.42738,-94.141889)"><path
       style="fill:#ff6600"
       d="m 39.219238,112.46602 c -0.134742,-0.13475 -0.244984,-0.78805 -0.244984,-1.4518 0,-0.92725 -0.190735,-1.27933 -0.823364,-1.51985 -0.452849,-0.17218 -1.038666,-0.57247 -1.301816,-0.88955 -0.649306,-0.78236 -1.002766,-0.72994 -2.270412,0.33671 -1.434952,1.20743 -1.760109,0.8074 -0.45283,-0.55711 1.020819,-1.06551 1.024173,-1.08375 0.428833,-2.33219 -0.517777,-1.08579 -0.773258,-1.25828 -1.86366,-1.25828 -0.694994,0 -1.263626,-0.16172 -1.263626,-0.35938 0,-0.21852 1.602213,-0.35937 4.08789,-0.35937 h 4.087891 l 0.224609,1.12304 c 0.123535,0.61768 0.222133,2.35616 0.219107,3.86329 -0.0053,2.64205 -0.315224,3.9169 -0.827638,3.40449 z m -0.244984,-5.69551 c 0,-1.77499 -0.07779,-1.97656 -0.762754,-1.97656 -0.634354,0 -0.688082,0.09 -0.31917,0.53448 0.529219,0.63767 0.234593,1.62177 -0.485536,1.62177 -0.700983,0 -1.051947,-1.05912 -0.550987,-1.66274 0.332396,-0.40051 0.19812,-0.49351 -0.71255,-0.49351 -0.617171,0 -1.122128,0.16533 -1.122128,0.3674 0,0.57251 2.907423,3.58572 3.459832,3.58572 0.358347,0 0.493293,-0.54071 0.493293,-1.97656 z m 2.477628,5.32199 c -0.0614,-1.05056 -0.06709,-3.72869 -0.01264,-5.9509 l 0.05063,-2.0664 h 4.333709 c 2.797627,0 4.254984,0.12738 4.111603,0.35937 -0.122158,0.19766 -0.741802,0.35938 -1.376986,0.35938 -0.952492,0 -1.274258,0.22167 -1.836087,1.26492 l -0.681207,1.26493 0.958859,1.00083 c 1.343695,1.40252 1.194144,1.71661 -0.281453,0.59111 l -1.240312,-0.94603 -1.634688,1.1247 c -1.304113,0.89725 -1.634688,1.33494 -1.634688,2.16434 0,1.13066 -0.694663,1.89601 -0.756747,0.83375 z m 3.272372,-4.78293 c 1.764247,-1.76424 1.858443,-2.51562 0.315371,-2.51562 -0.95243,0 -1.055046,0.0808 -0.678545,0.53448 0.545152,0.65687 0.226688,1.62177 -0.535264,1.62177 -0.761952,0 -1.080416,-0.9649 -0.535264,-1.62177 0.368912,-0.44451 0.315184,-0.53448 -0.31917,-0.53448 -0.684966,0 -0.762753,0.20157 -0.762753,1.97656 0,2.45167 0.496604,2.55808 2.515625,0.53906 z m -8.625,3.61496 c 0,-0.40698 0.161718,-0.73996 0.359375,-0.73996 0.197656,0 0.359375,0.23304 0.359375,0.51786 0,0.28482 -0.161719,0.6178 -0.359375,0.73996 -0.197657,0.12215 -0.359375,-0.11088 -0.359375,-0.51786 z m 8.482969,0.12702 c -0.289085,-0.75334 -0.275508,-0.86698 0.103581,-0.86698 0.449253,0 0.791526,1.01449 0.419786,1.24424 -0.168312,0.10403 -0.403827,-0.0657 -0.523367,-0.37726 z m -12.795469,-4.0629 c 0,-0.3643 1.094579,-0.86054 1.345235,-0.60988 0.09033,0.0903 0.05764,0.33671 -0.07265,0.54752 -0.286713,0.46391 -1.272589,0.51222 -1.272589,0.0624 z m 16.541657,-0.0244 c -0.29076,-0.18389 -0.419024,-0.44397 -0.28503,-0.57796 0.328861,-0.32886 1.352748,0.0894 1.352748,0.55264 0,0.45644 -0.372057,0.46527 -1.067718,0.0253 z m -16.901032,-4.68592 c 0,-0.19765 0.558428,-0.35937 1.240951,-0.35937 1.068356,0 1.325178,-0.1775 1.846531,-1.27617 0.601653,-1.267887 0.599021,-1.283002 -0.406159,-2.332184 -1.33685,-1.395371 -0.828913,-1.848467 0.569872,-0.508346 0.920789,0.882172 1.18183,0.972964 1.703283,0.592413 0.338709,-0.247186 1.059538,-0.727805 1.601843,-1.068041 0.738664,-0.463431 0.986579,-0.906282 0.988281,-1.765372 0.0025,-1.282408 0.572267,-1.904142 0.847501,-0.924865 0.264928,0.942607 0.277299,5.422615 0.01878,6.800635 l -0.225248,1.20068 h -4.092817 c -2.488962,0 -4.092817,-0.14083 -4.092818,-0.35938 z m 7.546875,-2.335935 c 0,-1.435852 -0.134946,-1.976563 -0.493293,-1.976563 -0.552409,0 -3.459832,3.013208 -3.459832,3.585718 0,0.20576 0.869639,0.36741 1.976562,0.36741 h 1.976563 z m -2.384743,1.080525 c -0.124476,-0.32437 -0.054,-0.7621 0.156618,-0.97271 0.547547,-0.547549 1.584991,-0.0471 1.441964,0.69556 -0.159312,0.82724 -1.310881,1.02689 -1.598582,0.27715 z m 4.848402,-0.27193 c -0.04664,-1.693357 -0.03846,-3.369766 0.0293,-6.001564 0.02999,-1.164932 0.64856,-0.526081 0.803608,0.829958 0.08239,0.720592 0.564596,1.35048 1.613952,2.108255 l 1.496455,1.080641 1.232779,-0.940286 c 1.738669,-1.326148 2.065255,-1.167539 0.634813,0.308303 l -1.21018,1.248589 0.682343,1.267034 c 0.562982,1.04539 0.884367,1.26704 1.837224,1.26704 0.635184,0 1.254828,0.16172 1.376986,0.35937 0.143381,0.232 -1.313976,0.35938 -4.111603,0.35938 h -4.333709 z m 4.723841,0.6289 c 0,-0.29648 -0.646875,-1.18593 -1.4375,-1.976557 -2.019021,-2.019021 -2.515625,-1.912605 -2.515625,0.539062 v 1.976565 h 1.976562 c 1.517361,0 1.976563,-0.12524 1.976563,-0.53907 z m -3.103493,-0.35697 c -0.124476,-0.32437 -0.054,-0.7621 0.156618,-0.97271 0.547547,-0.547549 1.584991,-0.0471 1.441964,0.69556 -0.159312,0.82724 -1.310881,1.02689 -1.598582,0.27715 z m -10.901725,-0.8868 c -0.29076,-0.183883 -0.435196,-0.427791 -0.320968,-0.542019 0.283098,-0.283098 1.388686,0.16786 1.388686,0.566429 0,0.40961 -0.395736,0.40056 -1.067718,-0.0244 z m 15.802093,0.0244 c 0,-0.364295 1.094579,-0.860537 1.345235,-0.609881 0.09033,0.09033 0.05764,0.336715 -0.07265,0.547521 -0.286713,0.46391 -1.272589,0.51222 -1.272589,0.0624 z M 36.099254,95.788363 c 0,-0.406978 0.161718,-0.640012 0.359375,-0.517853 0.197656,0.122158 0.359375,0.45514 0.359375,0.739959 0,0.284819 -0.161719,0.517853 -0.359375,0.517853 -0.197657,0 -0.359375,-0.332981 -0.359375,-0.739959 z m 8.271128,0.470428 c 0.003,-0.148242 0.162269,-0.512109 0.353872,-0.808594 0.281704,-0.435907 0.349422,-0.384329 0.353872,0.269531 0.003,0.444727 -0.156216,0.808594 -0.353872,0.808594 -0.197657,0 -0.356899,-0.121289 -0.353872,-0.269531 z"
       id="path2" /></g></svg>
