<?xml version="1.0" encoding="UTF-8" standalone="no"?>
<!-- Created with Inkscape (http://www.inkscape.org/) -->

<svg
   version="1.1"
   id="svg1"
   width="22.999994"
   height="26.289248"
   viewBox="0 0 22.999994 26.289248"
   xmlns="http://www.w3.org/2000/svg"
   xmlns:svg="http://www.w3.org/2000/svg">
  <defs
     id="defs1" />
  <g
     id="g1"
     transform="translate(-25.058626,-7.9719381)">
    <path
       style="fill:#000000;stroke-width:1.66338"
       d="M 30.959792,33.475756 C 30.11631,33.048886 28.942809,31.853575 28.352014,30.81951 26.955822,28.375764 24.339172,10.501398 25.245012,9.5955568 26.18431,8.6562603 26.468113,9.1979665 27.1935,13.314698 c 0.873651,4.958161 1.025273,5.312912 2.095261,4.902319 0.707937,-0.271661 0.893766,-1.418933 0.80771,-4.986612 -0.04425,-1.833953 -0.440817,-4.009602 -0.329301,-4.9427874 0.05374,-0.4496802 0.522627,-0.2599123 0.642242,-0.2698816 0.344946,-0.02875 1.219405,2.477949 1.695789,4.926792 0.680435,3.497751 1.083872,4.411121 1.881526,4.259726 0.777457,-0.147558 1.088846,-1.185541 1.328956,-4.429924 0.172474,-2.330461 0.657046,-4.2658845 0.78397,-4.4913814 0.201756,-0.3584479 0.473518,-0.3852321 0.718522,-0.1914658 0.229924,0.1818407 0.684669,2.5395102 0.521928,5.0753722 -0.273719,4.265122 -0.198384,4.636158 1.005224,4.950909 1.184406,0.309729 1.371341,-0.07768 2.083975,-4.318802 0.607698,-3.616612 1.234944,-4.4715915 1.944735,-4.7650659 0.762441,-0.3152425 0.50678,0.7323144 -0.08966,6.3232739 -0.632128,5.925556 -0.331028,7.024569 2.500458,3.994886 1.296007,-1.386724 2.039979,-1.434674 2.899694,-1.518938 0.33093,-0.03243 0.555649,0.815439 0.174644,1.43221 -0.454122,0.735131 -0.810478,0.910208 -1.109211,1.233641 -0.258475,0.279847 -0.483013,0.568747 -1.08373,1.039583 -1.581284,1.239393 -2.491764,1.793216 -3.919844,5.36543 -2.291949,5.733106 -3.819764,7.368983 -6.871147,7.357138 -1.310016,-0.005 -3.071972,-0.358493 -3.915455,-0.785364 z m 7.902086,-3.909192 c 0.751875,-1.379784 1.551028,-3.778728 1.775898,-5.330986 l 0.408853,-2.822287 -2.771192,-1.503337 c -2.193319,-1.189845 -3.379312,-1.434792 -5.687417,-1.174635 -4.331026,0.48817 -4.998486,1.292838 -4.484531,5.406401 0.761896,6.098011 2.795057,8.378654 7.204214,8.081129 1.841586,-0.124271 2.403112,-0.543936 3.554175,-2.656285 z"
       id="path1" />
  </g>
</svg>
