<?xml version="1.0" encoding="UTF-8" standalone="no"?>
<!-- Created with Inkscape (http://www.inkscape.org/) -->

<svg
   version="1.1"
   id="svg1"
   width="4000"
   height="2143.4131"
   viewBox="0 0 4000 2143.4131"
   xmlns="http://www.w3.org/2000/svg"
   xmlns:svg="http://www.w3.org/2000/svg">
  <defs
     id="defs1" />
  <path
     id="path66"
     style="fill:#000000;stroke-width:2"
     d="m 629.51666,434.84259 c -1.07543,-0.708 -2.06652,-1.54172 -3.1524,-2.23336 -0.0525,-0.0223 -0.10507,-0.0447 -0.1576,-0.0668 0,0 -11.35271,0.1944 -11.35271,0.1944 v 0 c 0.0511,0.0784 0.102,0.1566 0.1528,0.235 0.63047,0.50688 -0.1538,-0.10547 0.66947,0.46384 0.61656,0.42632 1.18976,0.91625 1.80048,1.34885 0.21393,0.1516 0.44337,0.27991 0.66508,0.41984 z m -8.95839,57.00264 c -0.1256,1.30684 -0.57937,2.5498 -1.3546,3.61189 -0.1406,0.1926 -0.72329,0.856 -0.91169,1.07259 -0.0932,0.1152 -0.2038,0.21829 -0.27983,0.34552 -0.0687,0.11453 -0.23677,0.5916 -0.30581,0.73996 -0.145,0.31144 -0.32143,0.59532 -0.45603,0.91396 -0.31689,1.12845 -0.32205,2.33164 -0.2068,3.49072 0.30676,1.525 1.54539,2.01989 2.66464,2.85729 0.96412,0.8768 1.0306,2.09339 1.01563,3.31183 -0.018,0.51249 -0.0565,1.02385 -0.0796,1.53608 -0.008,0.1806 0.016,0.36465 -0.02,0.54169 -0.0375,0.183 -0.3334,0.59043 -0.41572,0.71436 -1.0642,1.23116 -1.32484,2.91063 -1.5216,4.4722 -0.004,0.3276 -0.0585,0.6584 -0.012,0.9828 0.21113,1.4902 1.20776,2.82736 2.33161,3.76736 0.37708,0.3154 0.79643,0.57652 1.19463,0.86476 1.87089,1.22576 3.84017,1.75876 6.05897,1.91147 12.71175,0.87489 8.86787,0.90241 14.90203,0.78213 1.24824,-0.0808 2.50696,-0.0512 3.75376,-0.1618 0.601,-0.0535 1.19112,-0.1752 1.79332,-0.22521 1.43969,-0.0375 2.88052,-0.012 4.32053,-8e-4 0.67728,0.038 1.35695,-0.0244 2.03431,0.008 0.29101,0.014 1.16073,0.1024 0.87004,0.0831 -18.19711,-1.21398 -13.07952,-0.98128 -9.23499,-0.61132 22.69511,1.57314 7.25711,1.77812 12.44763,0.61916 0.27081,-0.0604 0.55352,-0.0689 0.81869,-0.1508 0.30915,-0.0952 0.59744,-0.2483 0.89427,-0.37688 0.9624,-0.4169 0.89249,-0.39648 1.85908,-0.86706 1.42048,-0.74466 2.67413,-1.7586 4.04289,-2.5817 0.1452,-0.1568 0.31608,-0.29294 0.43532,-0.47012 0.66239,-0.98418 0.66816,-2.31882 0.64072,-3.45766 -0.008,-1.21478 -0.42212,-2.32008 -1.23241,-3.23312 -0.24952,-0.28114 -0.53416,-0.529 -0.80124,-0.79352 -1.67427,-1.40224 -3.53412,-2.55154 -5.361,-3.73858 -2.07715,-1.33066 -4.15231,-2.66374 -6.21023,-4.02414 -1.12948,-0.75818 -2.28413,-1.47902 -3.40812,-2.2455 -0.59409,-0.40514 -0.89421,-0.57522 -1.26061,-1.16974 -0.1332,-0.34278 -0.35472,-0.93692 -0.51739,-1.23558 -0.3442,-0.63206 -1.25581,-1.97776 -1.5926,-2.50076 -0.8052,-1.2504 -1.42753,-2.25468 -2.21405,-3.5125 -0.96515,-1.51218 -1.68763,-3.17896 -2.93187,-4.49116 -3.38585,-2.56284 -0.64636,-0.58 -11.9532,-0.67436 -0.192,-0.001 -0.30577,0.23248 -0.4618,0.34446 -0.1602,0.11507 -0.31585,0.23808 -0.48689,0.33636 -0.31955,0.1836 -0.6642,0.32026 -0.98795,0.49636 -0.43973,0.24046 -0.83353,0.61076 -1.30356,0.79756 -0.166,0.066 -0.34908,0.0776 -0.51965,0.13054 -0.47488,0.1474 -0.56195,0.21232 -0.99976,0.43056 -0.52512,0.1398 -0.87391,0.55397 -1.28579,0.87489 -0.56604,0.44103 -0.0679,-0.0545 -0.58536,0.50892 -0.12253,0.143 -0.29156,0.36536 -0.45768,0.47759 -0.0543,0.0365 -0.1304,0.0344 -0.1812,0.0756 -0.0644,0.0523 -0.0893,0.143 -0.1534,0.1956 -0.4278,0.35145 0.22515,-0.41147 -0.25368,0.192 -0.0828,0.0352 -0.0992,0.0692 -0.1796,0.008 -0.07,-0.0532 -0.1136,-0.1444 -0.195,-0.1776 -0.28101,-0.11507 -0.73248,-0.0584 -1.03213,-0.0708 -3.92736,-0.1682 -0.52176,-0.0248 10.68089,0.75581 0.0756,0.007 -0.151,-0.0281 -0.22636,-0.02 -0.0592,0.007 -0.1076,0.0637 -0.1672,0.0631 -0.122,-10e-4 -0.22528,-0.094 -0.33749,-0.1422 -0.48952,-0.31068 -0.8674,-0.7554 -1.36899,-1.053 -0.46492,-0.11774 -0.32501,-0.2632 -0.31364,-0.74292 0.20167,-0.21254 0.41591,-0.37536 0.68948,-0.47764 0,0 -11.22669,-1.7431 -11.22669,-1.7431 v 0 c -0.38799,0.43684 -0.71127,0.87958 -0.79807,1.4773 -0.018,0.6258 -0.0664,1.3147 0.30043,1.85578 0.44673,0.3699 1.02305,0.56152 1.36905,1.05528 0.10894,0.10627 0.24056,0.1884 0.34528,0.29886 0.07,0.0737 0.10267,0.1818 0.183,0.24394 0.0636,0.0492 0.1492,0.0689 0.22943,0.0755 10.76232,0.84877 7.63945,0.82796 11.72693,0.84676 0.30967,-0.004 0.77227,0.0512 1.05935,-0.09 0.21325,-0.1048 0.32044,-0.34087 0.48784,-0.49563 0.24064,-0.11066 -0.0435,0.0369 0.26121,-0.21984 0.0401,-0.034 0.0981,-0.042 0.1384,-0.076 0.2358,-0.199 0.40427,-0.47561 0.66252,-0.65168 0.58243,-0.4058 1.13064,-0.82257 1.8244,-1.02781 0.13227,-0.0511 0.89336,-0.34239 0.9968,-0.39136 0.6412,-0.30359 1.20627,-0.74427 1.84387,-1.05448 0.49445,-0.26443 0.96444,-0.60871 1.47308,-0.84231 0.134,-0.0616 0.5662,-0.128 0.41933,-0.14 -10.70128,-0.8776 -13.89633,1.23791 -10.56209,-0.88997 0.0833,-0.012 0.169,-0.0565 0.2504,-0.0347 0.51372,0.1392 0.91804,0.95202 1.13076,1.32746 0.20724,0.36578 0.39316,0.74322 0.58973,1.11482 0.27319,0.47968 0.54639,0.95936 0.81959,1.43906 0.99004,1.6073 1.18613,1.95214 2.23725,3.54894 0.31844,0.48378 0.63799,0.9671 0.9728,1.4397 0.4738,0.66876 0.71724,0.82578 1.01891,1.5004 0.0867,0.1934 0.1378,0.40082 0.20669,0.60124 0.1566,0.4599 0.25599,0.88606 0.5846,1.26986 0.1806,0.21086 0.4152,0.36952 0.63675,0.5368 1.08137,0.81656 2.26744,1.48734 3.37641,2.26358 2.07208,1.35764 4.14695,2.70878 6.24651,4.02348 1.17092,0.77838 2.38997,1.49026 3.54429,2.29286 0.2964,0.2061 0.57672,0.43466 0.87207,0.64228 0.30865,0.21696 0.62636,0.4208 0.93953,0.63122 1.13056,0.91564 2.07851,1.53008 2.09424,3.09876 0.016,0.68404 0.0673,1.52194 -0.26281,2.1493 -0.1554,0.29528 -0.42844,0.43448 -0.68848,0.61626 -1.30859,0.8754 -2.628,1.74378 -4.05016,2.42752 -0.59728,0.26258 -1.20003,0.55 -1.82667,0.741 -0.42316,0.12906 -1.2036,0.28612 -1.65453,0.31762 -0.22079,0.016 -0.44256,-0.008 -0.66383,-0.014 3.56732,0.25078 7.13464,0.50154 10.70196,0.75232 -5.37924,-0.32906 -10.74569,-1.06296 -16.14229,-0.99044 -1.43844,-10e-4 -2.88327,-0.0348 -4.31523,0.1256 -1.862,0.22502 -3.74121,0.2153 -5.61377,0.26448 -5.09855,-0.008 -1.65167,-0.0471 7.72064,0.72542 0.59745,0.0492 -1.1988,-0.0411 -1.79604,-0.0928 -1.65159,-0.1428 -2.80108,-0.43576 -4.2546,-1.2453 -1.35644,-0.81028 -2.4404,-1.40734 -3.25411,-2.81122 -0.1264,-0.218 -0.2746,-0.43538 -0.32589,-0.68208 -0.0577,-0.2782 0.004,-0.5683 0.007,-0.85246 0.1902,-1.51746 0.50205,-2.8136 1.45152,-4.04562 0.23689,-0.49858 0.36644,-0.68596 0.46192,-1.2453 0.0295,-0.1722 0.009,-0.3494 0.018,-0.52402 0.0215,-0.52454 0.0667,-1.0473 0.0885,-1.57182 0.0371,-1.48622 -0.0457,-3.03178 -0.98851,-4.25822 -0.47721,-0.5451 -0.43605,-0.58856 -1.04621,-0.9497 -0.45543,-0.26954 -1.06131,-0.42934 -1.45039,-0.8085 -0.0855,-0.0832 -0.12706,-0.20186 -0.1904,-0.30278 -0.12346,-0.94122 -0.1436,-1.96948 0.1456,-2.88044 0.29347,-0.59494 0.53544,-1.21674 1.02444,-1.68388 1.35332,-1.63262 2.17751,-3.22666 2.33707,-5.38548 z m 2.98908,-59.08788 c -0.36296,-0.22983 -0.69945,-0.50804 -1.08885,-0.68943 -1.21415,-0.56557 -2.47796,-0.83832 -3.78475,-1.09137 -0.73592,-0.1424 -2.457,-0.39788 -3.28408,-0.45931 -4.07845,-0.30288 -8.15973,-0.56645 -12.2396,-0.84969 -1.51877,0.29524 -3.02077,0.6582 -4.48973,1.14572 -0.26563,0.141 -0.55231,0.24804 -0.79691,0.42297 -1.1366,0.81296 -1.52649,2.31484 -1.81008,3.60568 -0.0452,0.20972 -0.078,0.42251 -0.1356,0.62915 -0.69329,2.48512 0.33416,-1.5664 -0.41213,1.29948 -0.19,0.72973 -0.33532,1.47117 -0.46504,2.2134 -0.116,1.42748 -0.40507,2.82213 -0.72907,4.21324 -0.28528,0.93092 -0.1476,2.42976 -0.79296,3.17277 -0.44729,0.66196 -1.16517,0.93847 -1.8556,1.27584 -1.01572,0.50996 -2.21777,0.43243 -3.32704,0.40423 -0.38216,-0.1116 -0.63633,0.0889 -0.97765,0.1996 -0.0757,0.0245 -0.1636,0.018 -0.23203,0.058 -0.47264,0.28129 0.0707,0.1552 -0.40484,0.2284 -0.63536,0.58925 -0.88136,1.43997 -1.04288,2.26737 -0.11813,1.07332 -0.27228,2.14135 -0.3296,3.22051 -0.0636,0.2148 0.0844,0.57841 -0.0695,0.77688 -0.0885,0.1144 -0.25534,0.1364 -0.38242,0.20576 -0.2473,0.151 -0.44288,0.37053 -0.6804,0.53393 -0.1068,0.0733 -0.23548,0.11253 -0.33904,0.1904 -0.34756,0.26171 -0.64678,0.63288 -0.94406,0.94859 -0.54056,0.78784 -0.45172,1.70781 -0.54584,2.60328 -0.1378,0.86773 -0.1658,1.74576 -0.1776,2.62252 -0.0412,1.41781 -0.21636,2.83292 -0.38598,4.24137 -0.1164,1.39699 -0.2524,2.79144 -0.36754,4.18876 -0.143,1.43952 -0.23848,2.82916 0.28346,4.21648 0.41008,1.08999 0.7035,1.36576 1.37894,2.30568 0.77642,0.86628 1.62798,1.6764 2.6213,2.29291 1.12948,0.70097 2.38758,1.19177 3.60432,1.71392 2.3605,0.98869 4.78056,1.82681 7.14836,2.79565 1.17984,0.49859 2.24484,1.22363 3.04768,2.22643 0.38232,0.64097 0.93144,0.71661 1.64916,0.83144 0.4161,0.0667 0.83648,0.1032 1.25544,0.1486 0.86922,0.0943 2.00618,0.1952 2.87516,0.27509 1.6132,0.1216 3.23064,0.34351 4.7264,0.98144 0.95744,0.49575 1.91742,0.96963 2.81312,1.57015 0.68196,0.44989 1.44634,0.7644 2.27148,0.83232 4.1709,0.34332 8.34686,0.62408 12.52294,0.89733 1.29312,0.0845 1.70796,-0.014 3.03264,-0.1416 1.68704,-0.21429 3.35802,-0.56301 5.01566,-0.93969 0.52786,-0.12 1.76338,-0.41284 2.31774,-0.66676 0.24736,-0.1132 0.46046,-0.28999 0.69068,-0.43496 0.82336,-0.9068 0.7615,-2.11696 1.0344,-3.22931 0.06,-0.24489 0.26296,-0.7088 0.36384,-0.95069 0.57412,-0.86212 0.99558,-1.77868 1.32572,-2.75747 0.1716,-0.98137 0.49378,-2.15664 0.34076,-3.15521 -0.088,-0.57395 -0.25762,-1.13804 -0.47924,-1.67475 -0.50462,-1.22185 -1.09672,-1.91784 -1.85446,-2.9634 -1.07154,-1.29044 -0.5122,-0.64924 -1.48234,-1.71297 -0.1406,-0.1542 -0.57048,-0.58563 -0.67774,-0.831 -0.1344,-0.30739 -0.1386,-0.99319 -0.1556,-1.24032 -0.1478,-1.55035 -0.67716,-3.02312 -0.99216,-4.53868 -0.0964,-0.46368 -0.28002,-1.52103 -0.1978,-2.06104 0.0325,-0.21383 0.1568,-0.40311 0.23528,-0.60467 1.1113,-1.20376 1.56484,-2.25605 1.87402,-3.85457 0.1768,-0.58031 0.35152,-1.51267 0.87232,-1.91823 0.10293,-0.0801 0.2437,-0.0957 0.35722,-0.16 0.1252,-0.0708 0.2373,-0.1626 0.35594,-0.24404 1.1754,-1.25565 1.66376,-2.56981 2.0669,-4.21873 0.26516,-1.30044 0.26748,-2.62876 -0.0804,-3.91392 -0.0877,-0.32451 -0.36544,-1.04487 -0.49068,-1.37891 -0.35654,-0.8204 -0.32356,-1.7418 -0.67438,-2.56412 -0.3787,-0.88764 -0.62552,-1.05401 -1.26766,-1.81548 -1.83142,-1.75916 -3.65076,-3.26961 -4.65156,-5.65929 -0.33482,-1.16712 -0.70644,-1.69148 -1.62016,-2.46379 -0.83198,-0.7464 -1.71724,-1.41385 -2.62472,-2.06373 -0.52648,-0.39824 -1.02616,-0.84207 -1.657,-1.07059 -0.1926,-0.0697 -0.3962,-0.104 -0.59366,-0.1584 -3.90268,-1.04497 -0.35184,-0.10987 -11.62086,-0.87517 -0.1204,-0.008 -0.2385,0.0364 -0.35844,0.0489 -0.23764,0.0248 -0.2325,0.012 -0.5478,0.004 -0.56126,0.149 -0.2872,0.0808 -0.82184,0.20645 0,0 11.13418,2.28928 11.13418,2.28928 v 0 c 0.51482,-0.0564 0.2535,-0.0444 0.78408,-0.0333 0.23426,-0.012 0.46694,-0.0356 0.70072,-0.007 0.0585,0.008 0.23396,0.0332 0.175,0.0289 -11.22864,-0.7916 -14.65958,-0.67418 -10.77054,-0.79862 0.37084,0.0327 0.1772,0.007 0.57984,0.0868 0.6189,0.0719 1.17846,0.1 1.62128,0.61734 0.87414,0.68726 1.84958,1.22502 2.63306,2.02576 0.20728,0.1582 1.18718,0.8093 1.29282,0.94964 0.0881,0.1172 0.28992,0.83916 0.3076,0.89748 0.21098,0.65238 0.29684,1.005 0.63748,1.6372 0.96416,1.78946 2.44452,3.19518 3.97934,4.49416 0.41156,0.36972 0.9958,0.82214 1.29824,1.32216 0.47444,0.7844 0.33134,1.76132 0.68128,2.59024 0.1526,0.41464 0.34632,0.81412 0.48488,1.23368 0.36344,1.10042 0.33684,2.24818 0.10453,3.3732 -0.35252,1.36174 -0.78349,2.5677 -1.93629,3.4554 -1.00396,0.8214 -1.4298,1.89102 -1.70331,3.13802 -0.1192,0.54996 -0.135,0.75564 -0.36396,1.2754 -0.39136,0.88864 -1.1264,1.55414 -1.50537,2.44984 -0.0908,0.31856 -0.22432,0.62794 -0.27267,0.95566 -0.31981,2.1683 0.89119,4.56124 1.19136,6.68866 0.0568,0.74712 0.018,1.61792 0.39488,2.29868 0.4598,0.8321 1.37092,1.32164 1.84935,2.14186 0.88512,1.11508 2.07873,2.44092 2.38688,3.88058 0.172,0.80392 -0.1228,1.98782 -0.26919,2.79782 -0.33873,0.95488 -0.86344,1.79884 -1.31312,2.70362 -0.174,0.45088 -0.2838,0.69656 -0.40064,1.18662 -0.1354,0.56798 -0.0892,1.39876 -0.4832,1.87836 -0.10773,0.1312 -0.27913,0.193 -0.41872,0.28938 -0.98845,0.35404 -1.98677,0.58444 -3.01593,0.79784 -0.87079,0.1806 -2.47315,0.49212 -3.3378,0.61356 -0.54583,0.0767 -1.09599,0.11827 -1.64399,0.1774 -0.52676,0.02 -1.05317,0.0568 -1.58029,0.0573 -0.4658,4.8e-4 -1.86068,-0.0915 -1.39636,-0.0544 3.32993,0.2656 6.6634,0.48508 9.99416,0.74012 0.37832,0.0289 -1.03463,0.001 -1.7514,-0.1606 -0.1824,-0.0412 -0.35515,-0.11667 -0.53272,-0.175 -0.33156,-0.1986 -0.47287,-0.27136 -0.78435,-0.50616 -0.1554,-0.1172 -0.28985,-0.26291 -0.45453,-0.36672 -0.49427,-0.31164 -1.10748,-0.43176 -1.56988,-0.8056 -0.22532,-0.1328 -0.74968,-0.45391 -1.00687,-0.56152 -1.17064,-0.48988 -2.4242,-0.75615 -3.68557,-0.86132 -1.38751,-0.1132 -2.77123,-0.2554 -4.15951,-0.35827 -0.33025,-0.0244 -0.65968,-0.0701 -0.99081,-0.0724 -0.0244,-1.3e-4 -0.5424,0.076 -0.67084,0.0948 -0.29884,-0.36544 -0.1382,-0.1514 -0.46467,-0.65445 -0.69389,-0.87584 -1.54821,-1.60128 -2.54013,-2.11896 -2.31964,-1.0772 -4.77136,-1.83352 -7.13271,-2.81412 -2.36476,-0.96436 -0.1216,-0.0389 -2.50392,-1.05367 -0.87348,-0.37204 -1.25333,-0.46497 -2.02948,-0.98132 -0.53377,-0.35512 -1.20733,-0.97917 -1.67984,-1.39541 -0.7854,-0.88947 -1.49,-1.69083 -1.75557,-2.89236 -0.20412,-0.92351 0.004,-1.84668 0.0241,-2.77268 0.11507,-1.38235 0.23145,-2.76444 0.37105,-4.1442 0.1792,-1.45012 0.33911,-2.90803 0.36903,-4.36943 0.007,-0.84412 0.034,-1.68884 0.165,-2.52441 0.0589,-0.6444 -0.0684,-1.3472 0.46316,-1.82439 0.63289,-0.59093 1.37717,-1.04649 1.96452,-1.68936 0.43928,-0.6426 0.53709,-1.02701 0.53204,-1.78181 0.0797,-1.02348 0.2262,-2.03939 0.32661,-3.06068 0.1132,-0.49879 0.25064,-1.12344 0.8714,-1.12415 0.0745,-0.0416 0.1406,-0.1052 0.22387,-0.12493 0.0513,-0.012 0.1016,0.0372 0.1546,0.0356 0.0788,-10e-4 0.1534,-0.038 0.23161,-0.0472 0.3228,-0.0375 0.6258,0.0924 0.95028,0.0209 1.21256,-0.074 2.38927,-0.26252 3.42712,-0.94349 0.78996,-0.47815 1.48503,-1.03483 1.93496,-1.8642 0.53775,-1.10756 0.61347,-2.33359 0.85248,-3.52831 0.33612,-1.40964 0.60235,-2.83237 0.74008,-4.27672 0.24819,-1.38429 0.644,-2.72369 1.00104,-4.08088 0.41788,-1.66984 0.73359,-2.304 2.463,-2.84744 1.43155,-0.40033 2.90867,-0.84388 4.40928,-0.7508 -3.42792,-0.24641 -6.85529,-0.50008 -10.28372,-0.73929 -0.46957,-0.0328 0.93915,0.0687 1.40704,0.12 1.88287,0.2066 3.82712,0.4578 5.6474,1.00128 0.38559,0.1152 0.74708,0.29925 1.12063,0.44888 z M 3579.2147,2135.5532 c -1.9047,-11.9104 -8.964,-25.5944 -15.7596,-30.5486 -3.276,-2.3882 -7.5599,-8.0464 -9.5195,-12.5736 -2.7592,-6.3742 -5.7032,-9.2674 -13.0472,-12.8226 -13.1877,-6.3842 -21.7065,-14.3818 -32.8317,-30.823 -5.256,-7.7676 -11.2768,-15.6636 -13.3796,-17.5468 -6.3236,-5.6626 -17.9539,-9.5762 -28.4576,-9.5762 -9.4291,0 -10.0079,-0.315 -11.9436,-6.5 -1.1188,-3.575 -2.9919,-17.4896 -4.1623,-30.9214 -3.046,-34.9622 -3.3944,-35.4632 -26.6261,-38.2986 l -10.4875,-1.28 -2.1769,-13.269 c -1.1975,-7.298 -4.914,-18.548 -8.2591,-25 -3.3448,-6.452 -6.7308,-15.6236 -7.524,-20.3814 -1.5745,-9.4436 -9.3469,-29.7732 -14.5661,-38.0998 -1.81,-2.8874 -6.2571,-8.6274 -9.8823,-12.7556 -3.6253,-4.1282 -6.5916,-8.9272 -6.5916,-10.6646 0,-1.7374 -4.4724,-7.6548 -9.9385,-13.1498 -11.5256,-11.5866 -14.1328,-19.8728 -9.2335,-29.3472 2.2935,-4.4352 5.0915,-6.5114 10.0207,-7.4362 11.2697,-2.1142 18.264,0.6086 26.0868,10.1554 8.9241,10.8908 17.2696,13.1362 28.4496,7.6544 10.7088,-5.2508 13.6729,-11.418 10.7272,-22.3196 -2.6392,-9.7676 -14.7499,-24.3866 -20.202,-24.3866 -1.9935,0 -5.1468,-1.5224 -7.0076,-3.3832 -6.568,-6.568 0.5449,-36.3844 11.4489,-47.9912 2.9519,-3.142 5.6767,-4.1306 9.4024,-3.4114 6.8439,1.3212 26.9784,-8.7704 27.9495,-14.0086 0.6588,-3.5546 -0.2731,-3.7058 -14.7615,-2.3928 -15.4628,1.4012 -15.4644,1.4008 -14.152,-3.2058 0.7219,-2.5338 1.8648,-8.882 2.5399,-14.107 0.6749,-5.225 2.1344,-9.5 3.2428,-9.5 1.1084,0 5.8973,3.181 10.6421,7.0688 11.4047,9.3452 20.5887,12.9742 32.2211,12.7318 16.3049,-0.3398 19.592,-2.031 19.3769,-9.969 -0.2349,-8.6728 -6.1181,-21.3192 -11.1773,-24.0268 -2.7223,-1.4568 -9.2095,-1.1672 -22.2395,0.9934 -10.1177,1.6776 -26.9961,3.6448 -37.5076,4.3714 -21.3841,1.4784 -25.8884,-0.4202 -25.8884,-10.9124 0,-6.3498 -3.3012,-10.3998 -7.2437,-8.887 -7.3499,2.8204 0.3352,21.9888 11.034,27.5212 8.6841,4.4908 12.2097,10.6872 12.2097,21.4594 0,18.2208 -5.9036,23.6492 -25.72,23.6492 -12.5185,0 -15.9045,-2.321 -26.2596,-18 -2.5425,-3.85 -10.5585,-13.0954 -17.8129,-20.5454 l -13.1903,-13.5454 0.5723,-14.9016 c 0.4044,-10.5312 -0.2904,-16.237 -2.3692,-19.4546 -1.6179,-2.5042 -5.3208,-13.0666 -8.2291,-23.4722 -9.5237,-34.075 -13.292,-40.0808 -25.1477,-40.0808 -5.1544,0 -9.4464,-1.607 -13.5791,-5.0846 -3.8733,-3.259 -11.1809,-6.1558 -20.356,-8.0688 -7.8721,-1.6414 -18.6921,-5.2034 -24.0444,-7.9156 -14.0693,-7.1294 -15.864,-6.6692 -15.864,4.069 0,11.1554 -2.5281,11.4672 -12.16,1.5 -3.986,-4.125 -9.2097,-8.85 -11.6081,-10.5 -3.2367,-2.2266 -4.8891,-6.3516 -6.4095,-16 -2.5189,-15.985 -5.7601,-21.2334 -14.2545,-23.0812 -3.6124,-0.7858 -9.4336,-3.9346 -12.9364,-6.9974 -3.5028,-3.0626 -8.3167,-6.1868 -10.6975,-6.9424 -2.7124,-0.8608 -6.1049,-5.3904 -9.086,-12.1312 -7.9012,-17.8658 -29.9004,-30.1308 -57.8977,-32.279 -12.5256,-0.9612 -15.1592,-0.498 -24.274,4.268 -9.3488,4.8882 -13.1823,5.5068 -44.78,7.2258 -19.0059,1.034 -37.7824,2.463 -41.726,3.176 -14.9059,2.6942 -22.1703,9.076 -22.1703,19.4764 0,2.738 -2.2252,7.6226 -4.9449,10.8548 -5.1427,6.1116 -26.6103,18.3338 -41.3152,23.522 -7.9667,2.8108 -9.2915,2.7144 -21.2707,-1.5472 l -12.7748,-4.5446 -4.7785,5.5318 c -5.5879,6.4684 -8.112,15.1416 -10.0315,34.4682 -0.9292,9.3534 -3.0549,16.865 -6.4052,22.6324 -3.8616,6.6476 -4.4701,9.1766 -2.6472,11 1.4947,1.4948 13.0164,2.759 31.258,3.4294 23.0692,0.848 29.5496,1.7206 32.1599,4.3308 8.5541,8.5542 -6.0679,25.5102 -30.5507,35.4276 -8.6345,3.4976 -21.5057,8.7474 -28.6028,11.666 -7.0968,2.9188 -18.3468,9.6476 -25,14.9532 -18.608,14.839 -29.2848,21.473 -38.0656,23.6518 -4.4169,1.096 -17.9308,5.0874 -30.0308,8.8698 -12.1,3.7826 -30.1,8.7984 -40,11.1464 -24.3308,5.7704 -28.6689,7.8198 -41.8821,19.7858 -6.2587,5.6678 -13.7955,11.271 -16.7487,12.4516 -2.9529,1.1806 -15.8373,2.7908 -28.6317,3.5782 -37.1856,2.2884 -42.4983,7.726 -40.3512,41.3012 1.246,19.4826 1.53,18.696 -10.2428,28.3546 -1.7339,1.4224 -3.1435,5.6226 -3.1435,9.366 0,5.6314 2.1287,8.9596 12.5,19.5452 7.7015,7.8604 15.7444,18.9086 20.9515,28.78 12.8417,24.3454 12.9648,24.415 56.1548,31.7324 16.1541,2.737 30.4524,6.199 32.002,7.7486 1.8405,1.8406 2.9717,8.349 3.2988,18.9782 0.7132,23.184 7.2164,35.4096 34.0817,64.071 30.5432,32.585 35.5071,44.7704 22.3311,54.8202 -4.5067,3.4374 -8.0684,8.8836 -10.9463,16.7374 -4.536,12.3784 -11.6177,21.498 -18.3548,23.6362 -2.2581,0.7168 -9.7112,-0.5144 -16.5624,-2.736 -30.5348,-9.9016 -47.3693,-11.1792 -61.804,-4.6906 -12.142,5.4578 -16.7752,11.2582 -29.4997,36.9314 -15.1943,30.6554 -17.7504,32.347 -46.1711,30.553 -20.6572,-1.3038 -21.1557,-1.232 -29,4.1732 -37.4401,25.7988 -42.4064,26.6844 -77.9816,13.9066 -7.7,-2.7656 -17.2405,-5.0516 -21.2016,-5.08 -10.2665,-0.073 -19.04,-3.5962 -22.6397,-9.0904 -2.0692,-3.1578 -7.1051,-5.8616 -15.09,-8.102 -7.0808,-1.9868 -15.0708,-6.032 -19.5267,-9.8858 l -7.542,-6.5232 v -22.7252 c 0,-21.1318 0.4011,-23.488 5.7195,-33.6078 4.6773,-8.9 5.504,-12.454 4.5373,-19.5064 -1.7768,-12.9626 -8.4433,-24.252 -22.4312,-37.9854 -18.1705,-17.8402 -20.6781,-30.9578 -8.4193,-44.045 2.9781,-3.1792 4.2445,-7.4208 4.5132,-15.1162 0.2592,-7.422 2.3556,-14.7654 6.8477,-23.9864 5.27,-10.8174 6.0667,-14.0512 4.2832,-17.3838 -2.7896,-5.2122 -7.7156,-5.1602 -22.5189,0.2374 l -11.8792,4.3314 -10.9523,-5.3716 c -6.0236,-2.9542 -11.7953,-4.8502 -12.826,-4.2134 -1.0308,0.637 -1.8872,5.3802 -1.9033,10.5402 -0.04,12.4358 -3.6151,19.2142 -10.5607,20.019 -8.2245,0.9532 -12.0844,8.2814 -11.0009,20.8868 0.9505,11.0622 9.6228,31.075 15.9449,36.7964 3.4963,3.1642 4.1799,3.166 10.7576,0.031 8.9667,-4.2757 8.8884,-4.2912 8.8884,1.7648 0,5.9112 -4.0197,22.8859 -5.4196,22.8859 -0.5196,0 -6.4025,-3.8251 -13.0733,-8.5 l -12.1288,-8.5 H 2264.1892 2239 l -13,-7.3855 c -7.15,-4.0617 -17.5,-8.3436 -23,-9.5152 -5.5,-1.1713 -12.0052,-2.5852 -14.4557,-3.1417 -2.5856,-0.5871 -7.3264,-5.4991 -11.2944,-11.702 -7.2783,-11.3779 -16.5007,-19.2523 -22.5587,-19.2612 -2.0301,0 -7.4877,2.0053 -12.1281,4.4629 -5.8939,3.1219 -9.07,3.8356 -10.5375,2.3683 -5.3088,-5.3088 -16.0256,-57.9624 -16.0256,-78.7363 0,-8.6685 -2.6452,-12.2496 -17.1841,-23.2645 -4.7795,-3.6211 -5.718,-6.1128 -7.0707,-18.7724 -2.4156,-22.6072 -2.108,-22.4156 -56.1,-34.9484 -11.7449,-2.7263 -29.5005,-8.14 -39.4569,-12.0304 -9.9562,-3.8907 -19.8946,-7.0736 -22.0852,-7.0736 -2.1908,0 -5.9658,2.6816 -8.389,5.9589 -2.423,3.2775 -7.5068,6.9824 -11.297,8.2335 -7.885,2.6021 -23.6415,1.3909 -27.091,-2.0827 -1.5833,-1.5945 -2.326,-13.1029 -2.326,-36.0456 0,-18.5368 -0.612,-34.3213 -1.36,-35.0769 -0.748,-0.7556 -7.4746,1.0724 -14.9482,4.0624 -12.7864,5.1153 -14.7899,5.3557 -33.9462,4.0725 l -20.3578,-1.3637 -5.4255,7.1132 -5.4255,7.1132 -13.2684,-1.2027 c -12.953,-1.174 -13.4916,-1.0309 -22.6586,6.0155 -14.0308,10.7849 -17.3631,11.5649 -34.9968,8.1909 l -15.3316,-2.9333 -37.1407,12.2584 c -30.9423,10.2125 -39.4316,12.2584 -50.8677,12.2585 l -13.727,3e-4 0.9359,9.7396 c 0.5848,6.0864 4.3801,16.6689 10.1185,28.2137 5.0506,10.1608 9.7671,22.6383 10.4812,27.7276 1.1494,8.19 0.7659,9.6267 -3.3365,12.5 -2.9536,2.0688 -8.7493,3.2467 -15.9761,3.2467 -12.4175,0 -13.769,-1.2507 -13.769,-12.7399 0,-10.9813 -7.8876,-23.7572 -17.2929,-28.01 -4.5609,-2.0625 -9.2553,-5.8625 -10.4319,-8.4449 -1.1765,-2.5823 -4.4854,-5.2839 -7.353,-6.0035 -2.946,-0.7393 -6.0204,-3.4297 -7.068,-6.1853 -2.7187,-7.1507 -2.2008,-27.6528 1.0908,-43.1868 1.5816,-7.4636 2.4129,-14.7759 1.8474,-16.2495 -1.082,-2.8196 -8.4953,-6.4385 -26.9121,-13.138 -19.1345,-6.9605 -19.0311,-6.7881 -15.9523,-26.58 2.9654,-19.062 2.3111,-22.8564 -4.105,-23.8072 -8.1307,-1.2045 -12.0696,-9.5401 -13.1644,-27.858 -1.8371,-30.7385 -4.0136,-33.17 -31.4372,-35.1168 -20.7568,-1.4733 -27.8418,-5.4805 -46.8571,-26.5012 -8.2649,-9.1364 -16.2467,-16.1789 -18.3365,-16.1789 -6.4207,0 -10.082,2.3036 -13.1786,8.2916 -3.7429,7.2377 -4.7774,32.5801 -1.4653,35.8921 1.3064,1.3067 7.0395,3.1128 12.74,4.014 5.7004,0.9011 14.856,3.9871 20.3457,6.8575 5.4898,2.8705 12.3372,5.4001 15.2166,5.6213 8.4781,0.6519 10.705,7.4819 9.3138,28.5664 -1.0626,16.1067 -0.7078,19.1944 3.0299,26.3655 7.6095,14.5992 9.6593,47.4981 3.6695,58.8916 -2.6214,4.9857 -5.1602,4.3441 -8.52,-2.1532 -1.7432,-3.3708 -7.6623,-8.1788 -14.6619,-11.9096 -13.9721,-7.4472 -19.4956,-12.3195 -28.0283,-24.724 -3.9117,-5.6868 -8.8489,-10.1447 -12.737,-11.5 -3.492,-1.2172 -18.3648,-2.2132 -33.0507,-2.2132 h -26.7015 v -27.144 -27.1439 l -11.5,1.2312 c -6.325,0.6772 -15.8706,1.7396 -21.2125,2.3608 l -9.7124,1.1296 1.154,-7.7169 c 0.6347,-4.2443 1.7164,-13.1168 2.4039,-19.7168 1.8941,-18.184 8.4133,-42.2155 14.9826,-55.2291 4.8123,-9.5332 5.8844,-14.1632 5.8844,-25.4129 0,-11.9648 0.7766,-14.9023 5.9636,-22.5571 3.2799,-4.8405 5.9799,-10.3777 6,-12.3048 0.052,-4.9844 -10.4693,-34.6845 -16.4774,-46.5144 -2.7883,-5.49 -8.81,-14.2229 -13.3815,-19.4064 -10.6307,-12.0537 -35.3259,-28.5952 -48.5562,-32.5241 -15.88,-4.7159 -34.4756,-18.0056 -58.8406,-42.0512 -16.4416,-16.2262 -23.9223,-25.2676 -28.5039,-34.4506 -9.0799,-18.1996 -19.6519,-22.6288 -34.7264,-14.5494 -15.6916,8.4102 -37.79,3.2606 -55.3722,-12.9032 -8.5923,-7.899 -13.7318,-11.02 -19.8499,-12.0536 -10.572,-1.7862 -23.5503,0.3438 -31.4916,5.1682 -13.7552,8.3566 -45.6452,0.865 -73.26519,-17.2114 l -15.27959,-10 0.39043,-54 c 0.36953,-51.1142 0.1724,-54.3742 -3.68868,-61 -4.4216,-7.5878 -21.09832,-19.8254 -32.68705,-23.9862 -11.16434,-4.0084 -19.7151,-10.58 -26.88156,-20.6599 -18.39824,-25.8775 -52.94274,-58.268 -67.31685,-63.1192 -3.83048,-1.2928 -9.68048,-4.96639 -13,-8.16347 -8.96212,-8.6316 -29.03057,-20.07135 -35.21064,-20.07135 -6.01633,0 -15.87513,9.77575 -21.27173,21.09251 -3.02747,6.34871 -2.93247,7.09161 2.26564,17.71611 2.98409,6.0993 8.16593,13.1375 11.51521,15.6405 15.85531,11.8491 23.66604,25.2478 23.66604,40.5972 0,8.0382 4.22107,11.8252 19.13944,17.1716 8.40328,3.0116 17.10744,4.328 29.86057,4.5164 l 18,0.2658 -0.67302,10.3794 c -0.92832,14.3166 0.53908,17.576 10.55554,23.446 20.58232,12.062 12.81886,35.3714 -13.39992,40.2324 -11.04052,2.047 -17.13034,7.6478 -17.865,16.4304 -0.4961,5.9308 -1.99465,8.2588 -7.61761,11.8348 -14.64293,9.3122 -18.30284,13.5382 -26.82836,30.9786 -4.82741,9.875 -9.19488,17.222 -9.70549,16.3266 -0.5106,-0.8956 -3.78132,-10.2764 -7.26827,-20.8464 -3.57861,-10.8478 -8.26888,-21.0044 -10.76888,-23.3194 -2.43596,-2.2558 -12.32396,-7.835 -21.97336,-12.398 -15.7748,-7.46 -17.9564,-9.1734 -21.62972,-16.988 -2.24697,-4.7802 -5.84792,-10.2864 -8.00212,-12.2358 -2.1542,-1.9496 -5.257,-8.155 -6.89509,-13.7898 -2.27671,-7.8316 -5.0928,-12.0128 -11.95352,-17.7476 -4.93636,-4.1262 -8.97519,-9.0776 -8.97519,-11.0028 0,-4.3346 -3.77753,-8.3004 -7.9064,-8.3004 -1.70852,0 -7.53693,3.15 -12.95204,7 -5.41509,3.85 -11.43901,7 -13.38645,7 -5.75295,0 -25.72948,-12.7146 -40.5518,-25.8104 -7.58819,-6.7044 -15.23819,-12.3372 -17,-12.5176 -1.76183,-0.18 -10.70208,-0.4054 -19.86727,-0.5 -15.67769,-0.162 -16.95017,-0.5042 -21.5,-5.7836 -2.65981,-3.0863 -4.83604,-7.7088 -4.83604,-10.2721 0,-2.5633 -3.825,-10.214 -8.5,-17.0016 -13.1266,-19.0584 -17.43131,-26.7532 -17.46711,-31.2232 -0.018,-2.2597 -2.72089,-8.347 -6.00624,-13.5274 -3.28533,-5.18051 -7.81001,-13.01926 -10.05485,-17.4195 -4.94968,-9.70217 -13.23227,-40.68648 -15.07704,-56.40169 -1.20171,-10.237 -0.71143,-12.68615 4.60429,-23 3.27204,-6.34867 7.54671,-16.49303 9.49924,-22.54303 5.95667,-18.45698 10.45416,-25.81582 16.52603,-27.03988 9.09015,-1.83254 26.63091,-11.33774 29.77359,-16.1341 2.65332,-4.04948 2.546,-5.26974 -1.06983,-12.16352 -2.21044,-4.21438 -6.7622,-11.7125 -10.11497,-16.6625 -7.45724,-11.00976 -7.64107,-16.76238 -0.91983,-28.78796 3.23295,-5.78438 5.59676,-13.74172 6.26224,-21.08058 0.97595,-10.76294 0.61472,-12.24304 -4.15105,-17.00882 -6.15191,-6.1519 -9.44223,-5.77914 -29.76482,3.3719 -15.49189,6.97584 -16.73425,6.56354 -23.72285,-7.87298 -2.41084,-4.98012 -7.40587,-12.0773 -11.10007,-15.7715 -12.31868,-12.31866 -7.68133,-20.2709 19.92939,-34.17544 26.94225,-13.5679 34.80127,-21.2586 26.64584,-26.07524 -3.61612,-2.1357 -7.29196,-9.38196 -7.29196,-14.37478 0,-2.2211 4.05,-8.03108 9,-12.91104 14.27284,-14.07094 12.84704,-16.73172 -19.3942,-36.19267 -17.99371,-10.86108 -25.6058,-18.99872 -25.6058,-27.37368 0,-12.02018 -4.53272,-16.54276 -29.41167,-29.3459 -54.26201,-27.92416 -55.18561,-28.52918 -57.89196,-37.92314 -1.35028,-4.687 -4.21629,-10.99524 -6.36893,-14.01832 -4.98339,-6.99852 -7.83888,-17.78232 -9.38964,-35.45986 -1.66064,-18.9302 -6.238,-41.8454 -9.69355,-48.52766 -6.62644,-12.8141 -8.56524,-13.4196 -44.95296,-14.03928 -38.32297,-0.65262 -41.95412,-1.17878 -43.87788,-6.35798 -0.77737,-2.0929 -4.49728,-5.89098 -8.26641,-8.44018 -8.21227,-5.5542 -15.54344,-19.12026 -17.34,-32.08696 -0.72028,-5.19864 -3.44652,-12.34848 -6.05831,-15.88856 -2.61177,-3.54008 -4.77005,-9.18664 -4.79617,-12.54794 -0.0619,-7.96415 -7.73563,-26.47184 -14.83532,-35.78003 -3.08359,-4.04276 -8.8714,-9.2528 -12.86184,-11.57784 -3.99047,-2.32505 -10.90324,-8.84577 -15.36176,-14.49048 -4.45852,-5.64469 -12.75047,-13.41309 -18.42652,-17.26309 -12.45211,-8.44608 -14.95843,-11.61571 -28.46638,-36.00001 -13.40889,-24.2055 -20.93201,-35.14131 -25.43124,-36.96755 -1.96321,-0.79688 -9.09906,-2.6382 -15.85745,-4.09183 -13.62855,-2.93129 -26.46649,-8.81128 -30.84583,-14.12788 -7.10764,-8.6288 -18.467518,-14.81273 -27.210975,-14.81273 -7.350961,0 -10.092149,-1.22847 -17.199921,-7.70817 C 58.804891,121.71584 52.300002,116.99084 49,115.45534 42.776335,112.55944 34.727063,99.3412 36.973672,95.70612 c 2.545835,-4.11926 20.577235,-2.2194 31.970858,3.36856 12.386716,6.075 16.54386,4.79132 14.237856,-4.39654 -1.47381,-5.87212 -11.18872,-11.01464 -20.808175,-11.01464 -3.222345,0 -7.353793,-1.76746 -9.389501,-4.01688 C 50.985327,77.43692 42.874259,72.514858 34.960115,68.708318 21.453679,62.211978 -2.1212769e-8,45.501638 -2.1212769e-8,41.477778 c 0,-3.79178 5.65490222121277,-1.50564 18.109436021212768,7.32122 14.25962,10.10616 24.110307,14.8641 30.774143,14.8641 2.417295,0 6.351428,2.25 8.742523,5 2.391093,2.75 6.378396,5.00338 8.860672,5.00748 12.685433,0.021 28.306724,19.236662 27.140356,33.385182 -0.625689,7.58988 -0.647801,7.60734 -9.62713,7.60734 -7.663909,0 -9.090337,0.6334 -9.608506,4.26654 -0.463603,3.25052 0.917196,4.79838 5.798445,6.5 3.523825,1.2284 8.297653,2.25046 10.608507,2.27124 4.179044,0.0376 14.668104,6.21428 27.486514,16.18602 8.01867,6.23792 17.82448,9.7762 27.09317,9.7762 9.99723,0 21.64119,6.82574 28.12524,16.48712 3.14231,4.68208 10.47847,18.21174 16.30259,30.06587 7.97128,16.22435 12.60372,23.14692 18.73695,28 29.72332,23.51933 61.9322,59.94199 65.43748,73.99847 1.15876,4.6467 4.45152,14.29854 7.31724,21.44855 2.86572,7.15 6.92789,17.95 9.02705,24 5.79643,16.70581 7.9616,20.06592 14.76068,22.90676 3.43847,1.43668 8.61,4.9704 11.49231,7.85269 4.39704,4.39704 7.10617,5.26496 16.83145,5.39223 29.8248,0.39032 58.29527,3.11317 61.64827,5.89592 7.97113,6.61545 15.30372,33.5346 17.91056,65.75257 1.52009,18.787 3.60392,25.98384 8.62213,29.77803 1.87547,1.418 4.75995,6.80545 6.40995,11.97212 2.05584,6.43748 4.88832,10.54633 9,13.05565 3.3,2.01395 15.9,9.74564 28,17.18155 12.1,7.43589 26.2438,15.13601 31.43065,17.11137 10.26011,3.90747 13.66951,7.84723 17.39515,20.10111 5.80468,19.09193 7.78464,21.71053 20.8514,27.57696 6.83209,3.06733 18.02469,9.11945 24.8724,13.44917 9.96975,6.30372 12.4504,8.89135 12.4504,12.98727 0,6.78372 -5.15101,18.82511 -10.47901,24.49648 -3.72303,3.96299 -4.30344,6.99747 -4.40455,23.02731 l -0.1164,18.46281 -19.43516,10 c -30.5754,15.732 -37.24072,22.24371 -25.58495,24.99527 3.00472,0.70932 6.60507,4.67173 10.04492,11.05516 2.94888,5.47225 6.72783,10.21709 8.39767,10.54409 1.66984,0.32699 7.88288,-1.54633 13.80677,-4.16293 21.32799,-9.42059 27.7721,-8.70356 32.94007,3.66516 3.6422,8.71704 3.51399,33.51928 -0.227,43.90325 -4.36056,12.10387 -3.61628,17.05264 4.34207,28.87008 9.08665,13.49292 10.88009,24.88195 5.07609,32.23508 -2.21629,2.80783 -11.41129,9.07816 -20.43336,13.93407 -9.02205,4.85592 -17.72788,10.8498 -19.34624,13.31976 -1.61839,2.46996 -4.30632,10.4698 -5.9732,17.77744 -1.66688,7.30761 -4.73552,14.99141 -6.81919,17.07508 -9.75881,9.75881 0.60983,71.75725 14.17408,84.75264 3.32059,3.18132 6.04244,6.74084 6.04859,7.91004 0.0336,6.4026 5.14564,18.3677 14.22912,33.3042 5.62644,9.2519 12.32459,21.5467 14.88475,27.3217 5.162,11.6439 4.23617,11.2412 24.31049,10.5739 16.41451,-0.5457 18.81355,0.542 41.79011,18.9467 7.57589,6.0686 18.21536,13.266 23.64324,15.9946 l 9.86885,4.961 6.40088,-6.9882 c 9.34127,-10.1982 17.9212,-9.7806 30.12252,1.4662 11.7546,10.835 19.56184,22.2498 24.80787,36.271 5.92752,15.8428 17.97637,27.407 39.33373,37.7514 l 17.59728,8.5234 5.17063,13 c 6.57424,16.529 10.34648,17.053 18.6042,2.585 4.35713,-7.6338 8.38497,-11.6758 15.08477,-15.1376 9.13747,-4.7214 9.1404,-4.7262 9.1404,-15.492 v -10.769 l 10.00001,-2.6866 c 34.7421,-9.3336 36.96006,-15.4398 11.55698,-31.8172 -13.25628,-8.5464 -16.13842,-13.3482 -10.41712,-17.3554 5.31442,-3.7224 4.09936,-4.382 -18.75215,-10.1788 -31.59196,-8.0138 -35.02817,-10.9212 -40.36025,-34.1484 -3.73308,-16.2619 -4.92208,-18.0932 -17.18216,-26.4655 -10.41268,-7.1106 -18.03324,-16.3261 -22.66264,-27.4059 -4.74635,-11.3596 -3.97308,-15.76954 4.68588,-26.72394 l 7.86856,-9.95447 -4.90615,-4.60908 c -4.20321,-3.94872 -4.84461,-6.20169 -4.47673,-15.72513 0.23616,-6.11384 -0.42195,-12.57392 -1.46243,-14.35575 -1.04049,-1.78181 -8.8668,-8.82985 -17.3918,-15.66232 l -15.5,-12.42265 v -11.76731 c 0,-13.40385 -1.1238,-14.54417 -16.53748,-16.78056 -5.549,-0.80512 -11.82184,-3.3568 -15,-6.10176 -5.26337,-4.54593 -5.44932,-5.37944 -5.10056,-22.86397 0.33655,-16.87096 1.00535,-19.57907 9.518,-38.53987 7.59032,-16.90637 9.35511,-23.1494 10.32012,-36.50785 0.64024,-8.86271 0.3184,-21.28903 -0.71521,-27.61403 l -1.87932,-11.5 h 5.57468 c 5.08997,0 5.69437,0.7982 6.95137,9.1804 0.75719,5.0492 0.9268,18.3242 0.37696,29.5 -0.91469,18.59167 -1.70828,21.83908 -9.33192,38.18788 -7.22432,15.49244 -8.49133,20.29123 -9.5292,36.091 l -1.197,18.22272 6.42824,5.409 c 3.81304,3.20847 8.83291,5.409 12.339,5.409 3.25095,0 9.14328,1.35063 13.09411,3.00139 l 7.18332,3.00137 -0.91483,11.03136 -0.9148,11.03136 17.66727,15.10996 17.66725,15.10999 v 13.52396 c 0,7.43817 0.56411,14.08805 1.25356,14.77752 0.68948,0.68945 3.79479,-0.0607 6.90068,-1.66667 12.64032,-6.53656 23.33428,-2.93837 41.84576,14.07976 12.92663,11.88383 19.84543,15.98183 34.15939,20.23269 7.94988,2.3608 10.80702,4.5898 16.24364,12.6724 3.62834,5.3942 12.89698,15.0803 20.59698,21.5247 8.08542,6.7669 16.1223,15.6218 19.02354,20.9597 7.07126,13.0102 10.8423,16.634 21.57438,20.7324 22.77873,8.6986 52.40209,31.2652 52.40209,39.919 0,2.6018 -1.74387,7.707 -3.87524,11.3448 -5.85427,9.9922 -8.70524,31.161 -7.76152,57.63 0.78505,22.0194 1.22845,24.1802 6.53233,31.8336 10.27403,14.8256 38.53324,30.1508 55.59674,30.1508 3.1714,0 10.433,-2.025 16.137,-4.5 21.7197,-9.4244 54.9564,-3.8378 62.3616,10.4822 6.1044,11.8048 27.6961,15.8298 43.0091,8.0178 8.4337,-4.3026 18.7673,-5.1302 26.6476,-2.134 9.5614,3.6352 19.3109,14.1978 21.6391,23.444 1.6539,6.5682 4.4354,10.6528 10.8137,15.8792 4.7228,3.87 9.5078,9.678 10.6333,12.9064 1.3167,3.7772 5.4196,7.8368 11.5087,11.3872 5.2043,3.0344 12.6788,8.3322 16.61,11.7726 l 7.1476,6.2556 7,-3.88 c 6.2195,-3.4474 9.5647,-3.7428 30,-2.6488 12.65,0.677 25.5752,2.2338 28.7227,3.4594 7.5155,2.9262 18.2112,-2.5058 21.0676,-10.6996 1.1009,-3.1582 3.3984,-5.742 5.1057,-5.742 4.4914,0 4.0055,-13.9746 -1.0429,-30 -2.2525,-7.15 -4.4667,-19.1132 -4.9204,-26.585 -0.4663,-7.6806 -2.1521,-15.4798 -3.8788,-17.945 -1.6796,-2.398 -3.0539,-7.0944 -3.0539,-10.4364 0,-4.968 -2.0065,-7.6774 -11,-14.8538 -7.5585,-6.0314 -11,-10.2062 -11,-13.344 0,-2.6134 -1.5152,-5.0472 -3.543,-5.6908 -12.7343,-4.0416 -22.3002,-23.145 -11.5898,-23.145 3.8019,0 5.0056,1.185 5.5,5.415 0.4275,3.658 3.5486,7.6334 9.6198,12.2528 4.9428,3.7608 9.9877,9.218 11.2109,12.1272 1.2232,2.909 5.4261,7.7316 9.34,10.7168 11.506,8.7762 13.4621,11.4186 13.4621,18.186 0,3.5266 1.2194,8.1874 2.7096,10.3572 1.4903,2.1698 3.2262,10.695 3.8572,18.945 0.6312,8.25 2.5619,18.9382 4.2904,23.7514 4.2415,11.8108 4.3866,52.0422 0.2168,60.1056 -1.6093,3.112 -4.3332,6.1982 -6.0529,6.8582 -1.7197,0.6598 -4.7864,5.044 -6.8148,9.7422 -3.6352,8.4204 -8.7336,14.2656 -13.7892,15.8092 -1.7225,0.526 0.1591,4.4434 5.6489,11.761 17.1306,22.8336 29.9963,57.5134 26.9012,72.5124 -0.733,3.553 -3.5006,9.8156 -6.1501,13.917 -2.6493,4.1016 -4.8171,7.8532 -4.8171,8.337 0,0.4838 3.15,2.8266 7,5.206 3.85,2.3794 7,5.1228 7,6.0964 0,0.9734 -4.0501,6.3302 -9.0002,11.904 -4.9503,5.5736 -11.2567,14.5864 -14.0144,20.0284 -9.1922,18.1398 -14.0954,49.0278 -8.4854,53.4536 1.375,1.0848 7.9,2.5762 14.5,3.3142 18.3444,2.0514 19.8567,4.4108 20.6722,32.2536 l 0.6721,22.9498 h 21.5548 c 35.4977,0 50.1009,4.4632 50.1009,15.3122 0,6.3912 14.4382,20.0592 24.3154,23.0186 6.7532,2.0232 8.3317,1.8792 11.236,-1.025 4.9072,-4.9072 3.9016,-16.6008 -2.477,-28.7994 -5.2681,-10.0752 -5.4137,-11.1816 -4.0764,-30.9774 l 1.3868,-20.529 -13.6924,-4.332 c -7.5308,-2.3826 -20.6276,-7.5664 -29.1038,-11.5196 -13.9639,-6.5126 -15.6066,-7.8902 -17.4888,-14.668 -1.1426,-4.1142 -2.0824,-15.8054 -2.0886,-25.9804 l -0.013,-18.5 h 19.2 19.2 l 6.3,6.7668 c 3.4649,3.7216 10.1225,11.2862 14.7945,16.81 10.2799,12.1544 19.9903,15.9948 44.9334,17.7708 24.1045,1.7166 25.6889,3.5388 27.4805,31.6078 1.3716,21.4874 2.2023,23.7086 10.4232,27.8722 4.5217,2.2902 4.6556,3.0858 4.2623,25.336 l -0.4062,22.9716 16.4062,5.7376 c 27.0306,9.453 40.8682,16.282 42.3312,20.8914 1.7833,5.6186 0.3286,7.485 -6.972,8.9452 -7.9624,1.5924 -11.9531,10.81 -11.9531,27.609 v 12.447 l 18.7621,18.1174 c 15.6847,15.1454 19.3239,19.852 22.1859,28.6928 3.474,10.7312 10.7529,18.0814 15.1903,15.3388 4.728,-2.922 1.0545,-21.379 -6.782,-34.0752 -4.5651,-7.3958 -8.5074,-17.2762 -10.3339,-25.8986 -4.6327,-21.8698 -5.1049,-20.9406 10.644,-20.9406 7.5165,0 18.7635,-1.0236 24.9933,-2.2748 l 11.3268,-2.2748 -3.9933,-6.4612 c -2.1963,-3.5538 -4.0044,-7.7052 -4.018,-9.2252 -0.015,-1.5202 -3.1636,-4.7974 -7,-7.2824 -5.2532,-3.4028 -6.9752,-5.9126 -6.9752,-10.1652 0,-4.1754 -2.0676,-7.3084 -7.934,-12.023 -14.5512,-11.6936 -15.8263,-34.1392 -2.9777,-52.419 3.8014,-5.4084 6.9117,-12.1518 6.9117,-14.9854 0,-7.828 3.0207,-11.935 13.1391,-17.8648 11.9944,-7.0292 20.01,-9.2456 25.4753,-7.0442 3.1528,1.27 3.4523,1.802 1.0655,1.8932 -6.0503,0.231 -25.8088,12.9122 -26.6335,17.0936 -0.4375,2.2182 -1.3017,6.439 -1.9204,9.3794 -0.6188,2.9402 -4.2752,9.473 -8.1255,14.5172 -6.3569,8.328 -6.9822,10.3188 -6.8012,21.6538 0.2835,17.7532 1.8906,21.7186 11.3863,28.096 6.6333,4.455 8.4144,6.8716 8.4144,11.4172 0,4.2394 1.8532,7.1796 7,11.1052 3.85,2.9366 7,6.8524 7,8.7018 0,6.4848 3.8676,8.0318 12.4815,4.9926 4.4117,-1.5564 10.9241,-2.83 14.4721,-2.83 3.5477,0 10.6419,-2.2286 15.7645,-4.9522 8.7579,-4.6568 10.5964,-4.8824 30.7979,-3.7808 l 21.484,1.1716 8.2764,-7.1838 c 10.6725,-9.2636 15.7977,-11.0932 27.4081,-9.7846 7.4522,0.84 10.011,0.3432 11.9599,-2.3222 1.9584,-2.6782 7.7195,-3.773 27.4175,-5.2098 27.1185,-1.9782 32.0878,-3.0596 46.5197,-10.1242 17.2221,-8.4306 20.8699,0.02 17.4592,40.4374 -2.2248,26.3658 -1.1683,34.1204 4.9695,36.4758 6.1325,2.3532 9.1854,1.3054 15.1172,-5.1892 5.4533,-5.9706 7.0184,-6.5182 20.5884,-7.2034 12.9696,-0.655 16.336,-0.02 28.7988,5.4524 8.4686,3.7168 21.986,7.4298 33.799,9.2836 57.4412,9.0144 68.0666,15.4588 65.8364,39.9294 -0.6016,6.6 -0.4314,12.9904 0.378,14.201 0.8096,1.2106 5.3318,4.619 10.0494,7.5742 4.7178,2.9552 9.5194,7.8146 10.6704,10.799 1.1508,2.9842 3.355,16.2258 4.8982,29.4258 5.421,46.3724 8.0172,51.87 21.1716,44.83 6.6032,-3.534 12.3476,-0.6684 28.9546,14.4444 8.6502,7.872 18.8776,15.581 22.7276,17.1312 3.85,1.5502 13.3,5.9196 21,9.7098 19.752,9.7224 41.9106,12.553 59.5,7.6004 4.8206,-1.3572 4.3676,-6.274 -1.4478,-15.7158 -8.6792,-14.0914 -4.9866,-38.3132 6.4592,-42.3712 6.7898,-2.4072 10.386,-7.252 13.6066,-18.331 6.3198,-21.7388 14.7584,-27.5054 24.0652,-16.4448 6.8376,8.126 14.9398,9.5292 24.9364,4.3186 14.3332,-7.4708 22.5058,-4.5326 25.0454,9.0044 1.8624,9.928 -0.1093,19.5578 -5.496,26.844 -3.635,4.9164 -4.7266,9.267 -5.1208,20.4094 -0.4096,11.5742 -1.236,14.6758 -4.5246,16.9792 -3.0224,2.117 -4.0236,5.0678 -4.0236,11.8586 0,9.5284 2.3594,12.738 18.1016,24.6254 9.7054,7.3288 16.7014,24.1964 16.6346,40.1074 -0.045,11.098 -1.1284,14.9994 -7.3954,26.6662 -8.7484,16.2866 -9.4848,26.4324 -2.7774,38.2746 5.3722,9.4852 15.004,16.389 27.1222,19.4404 4.8826,1.2296 11.971,4.9516 15.7518,8.2712 5.754,5.052 8.7228,6.092 18.2184,6.3816 8.5116,0.2596 15.088,2.1714 26.3373,7.656 17.0476,8.3116 17.4856,8.3866 25.2784,4.3224 3.1508,-1.6434 8.2628,-2.9934 11.36,-3 7.294,-0.02 12.6692,-2.8618 21.6956,-11.4858 8.5669,-8.1854 16.9833,-10.2996 41.6729,-10.469 9.35,-0.064 19.1795,-1.2282 21.8432,-2.587 3.384,-1.7264 7.7363,-8.9826 14.4472,-24.0878 17.1932,-38.6988 19.8544,-40.4886 59.7096,-40.1604 14.85,0.1214 32.738,1.3074 39.7512,2.6336 12.5124,2.366 12.8528,2.3138 18.1815,-2.7914 2.9865,-2.8614 10.1128,-13.7546 15.836,-24.2074 l 10.406,-19.0048 -26.5411,-28.0148 c -14.5973,-15.4082 -28.3237,-30.8308 -30.5029,-34.2726 -3.0548,-4.825 -4.2104,-11.092 -5.0464,-27.3708 l -1.0843,-21.113 -20,-4.4436 c -11,-2.444 -27.0324,-5.2998 -35.6277,-6.3462 -9.5115,-1.158 -17.0727,-3.2104 -19.3199,-5.244 -2.0305,-1.8378 -8.4876,-12.4626 -14.3485,-23.611 -10.1243,-19.257 -19.9348,-31.797 -28.6491,-36.6198 -3.2773,-1.8138 -4.0776,-4.8092 -4.7285,-17.6994 -0.6907,-13.6744 -0.2483,-16.24 3.7257,-21.6154 3.6196,-4.8956 4.7772,-9.8884 5.8667,-25.3006 1.4449,-20.4454 4.9197,-30.5338 13.1944,-38.3074 4.304,-4.0434 7.8144,-4.7816 29.3873,-6.18 34.5756,-2.2412 35.4987,-2.5036 45.5983,-12.9632 11.0632,-11.4576 21.9277,-16.6498 34.9577,-16.7068 7.2179,-0.032 13.9924,-1.9286 24,-6.7214 17.4343,-8.349 30.2719,-12.5458 47.0524,-15.3816 15.0843,-2.549 22.1375,-6.411 41.1875,-22.5522 15.0784,-12.7758 42.0836,-27.3886 50.616,-27.3886 6.5552,0 28.0157,-10.3956 33.1325,-16.0494 6.3428,-7.0088 1.3208,-8.9654 -22.6585,-8.8284 -16.0295,0.092 -22.9895,0.9684 -27.7868,3.5 -3.5204,1.8578 -6.8955,3.3778 -7.5,3.3778 -0.6048,0 -1.0935,-7.425 -1.0863,-16.5 0.02,-12.9528 0.8464,-17.7642 3.8892,-22.38 3.2039,-4.8602 3.6724,-8.0626 2.7011,-18.4632 -1.5,-16.065 2.7164,-27.77 13.5192,-37.5296 9.0556,-8.1812 14.6817,-8.8778 24.572,-3.0424 l 6.9229,4.0846 11.356,-3.9912 c 14.89,-5.2334 27.6875,-12.8478 33.0707,-19.6768 5.2877,-6.708 4.5037,-17.6312 -1.8447,-25.702 -2.3097,-2.9364 -4.1996,-8.0108 -4.1996,-11.2764 v -5.9374 l 7.3855,6.4844 7.3853,6.4846 21.9943,-1.336 c 33.7357,-2.0488 80.8496,-8.6096 96.32,-13.4126 12.1492,-3.7718 15.5648,-4.061 26.9149,-2.2782 27.7711,4.3618 48.5479,17.1772 58.4547,36.0552 2.0277,3.864 6.296,7.7704 10.3333,9.4572 3.7832,1.5808 8.7143,5.452 10.9576,8.6024 2.2435,3.1506 7.0271,6.574 10.6304,7.6074 9.688,2.7784 15.8983,13.0734 15.3348,25.4212 -0.6753,14.8036 6.6712,18.8968 21.3519,11.8962 7.1076,-3.3894 7.3236,-3.3622 17.1545,2.1642 5.6255,3.1622 15.272,6.348 22.1759,7.324 7.8505,1.1096 15.7325,3.9112 22.046,7.8358 5.9053,3.6708 12.5265,6.1086 16.5921,6.1086 10.4388,0 17.6067,10.8338 29.8719,45.1506 3.8193,10.686 8.8265,21.4326 11.1273,23.8816 3.7744,4.0178 4.0499,5.9244 2.8183,19.5146 l -1.3648,15.0618 13.0292,13.8728 c 7.166,7.63 15.3825,17.601 18.2592,22.1578 5.6745,8.9892 11.5685,11.5926 21.6701,9.5724 14.0607,-2.8122 17.8155,-13.6562 7.4651,-21.5596 -19.1655,-14.634 -18.7339,-13.9668 -18.6987,-28.9092 0.037,-15.816 2.5307,-21.7418 9.9299,-23.5988 7.1293,-1.7894 10.1769,1.3204 11.7817,12.0224 1.024,6.8286 2.4536,9.455 5.8495,10.746 6.8653,2.6104 23.0613,-1.2352 34.134,-8.1048 10.5864,-6.5678 9.6876,-6.759 16.548,3.5192 2.2612,3.3876 3.1512,2.9046 11.4476,-6.2126 4.9477,-5.437 9.366,-9.487 9.8185,-9 0.4524,0.4872 5.3855,10.0136 10.962,21.1696 5.5768,11.1562 12.4303,22.0856 15.2299,24.2878 2.7996,2.2022 5.0901,5.4628 5.0901,7.2456 0,5.094 -11.3665,10.7184 -24.7548,12.2494 -13.5928,1.5544 -20.2853,4.3448 -26.25,10.9448 -5.6256,6.225 -22.0432,14.1548 -30.4144,14.6904 -4.5928,0.2938 -8.3721,2.074 -10.8196,5.0964 -4.0204,4.965 -5.0641,15.1604 -1.7612,17.2018 1.1,0.6798 2,3.3378 2,5.9064 0,2.5688 2.5047,7.3516 5.5656,10.6286 5.4856,5.8724 16.5131,33.6728 16.4476,41.465 -0.047,5.3396 -7.7677,17.7238 -14.1709,22.7242 -8.2943,6.477 -15.3495,7.3922 -21.5644,2.7974 -2.9703,-2.196 -9.1848,-5.9234 -13.81,-8.283 -4.6251,-2.3596 -9.9067,-6.5754 -11.7368,-9.3684 -2.4071,-3.6738 -4.7663,-4.9112 -8.5292,-4.4742 -4.5388,0.527 -5.2783,1.6474 -5.8015,8.7906 -0.5352,7.306 0.144,8.7546 6.3256,13.4688 13.6635,10.4216 34.9568,47.6582 41.2055,72.0576 2.0124,7.8578 7.0313,23.0916 11.1532,33.8528 9.162,23.9198 14.5772,29.4342 28.9052,29.4342 15.186,0 16.2936,0.9016 14.8137,12.058 -2.354,17.7454 6.0155,53.4872 13.8019,58.941 2.3565,1.6506 8.0757,3.001 12.7093,3.001 13.7376,0 17.9728,2.7026 24.5012,15.6356 8.3144,16.4706 24.5068,33.7014 34.4779,36.6888 8.52,2.5526 12.2104,6.3826 24.7061,25.641 16.436,25.3308 16.9327,26.4586 16.9671,38.5346 0.039,13.2592 -2.8455,15.3166 -4.7524,3.3908 z M 1341.0328,1376.1624 c 2.6625,-3.025 4.8693,-6.812 4.9041,-8.4158 0.035,-1.6036 3.0975,-6.1036 6.8062,-10 3.7086,-3.8962 7.2886,-10.022 7.9557,-13.6126 l 1.2127,-6.5286 -5.4558,2.7568 c -3.0005,1.5162 -11.2468,3.2586 -18.3248,3.8722 -11.8559,1.0278 -13.3848,1.7184 -19.4198,8.7718 -3.6029,4.2108 -6.3618,8.1974 -6.1309,8.8592 0.3942,1.1292 21.7267,19.3464 23.0158,19.6546 0.3277,0.077 2.7744,-2.3326 5.4368,-5.3576 z m -32.9338,-24.639 c 2.4042,-3.3762 6.7405,-7.1468 9.6362,-8.3788 4.732,-2.0132 3.7467,-2.3848 -9.7351,-3.6712 -13.5827,-1.296 -16.0168,-0.9506 -25.7607,3.6536 -12.0635,5.7002 -11.5235,6.8408 5.4383,11.486 13.9937,3.8322 15.6735,3.578 20.4213,-3.0896 z M 60.060967,105.77624 c -3.614896,-6.7545 -13.253912,-7.54986 -10.695419,-0.88252 1.270235,3.31018 8.634182,6.888 11.139859,5.41238 0.827976,-0.4876 0.627979,-2.52604 -0.44444,-4.52986 z M 2022.0704,2111.7938 c -2.8025,-5.2368 -2.6181,-20.741 0.3239,-27.1978 2.6845,-5.8922 14.8705,-12.9336 22.3832,-12.9336 10.3112,0 14.4893,11.8814 8.352,23.7496 -4.3456,8.4038 -18.4239,20.2504 -24.0648,20.2504 -2.8212,0 -5.808,-1.652 -6.9943,-3.8686 z m 18.7519,-14.2848 c 5.9213,-7.0372 6.6973,-13.389 1.8625,-15.2442 -6.5393,-2.5096 -16.4348,14.981 -11.3513,20.0642 2.3776,2.3776 4.2197,1.4418 9.4888,-4.82 z m 45.8932,-0.071 c -2.3564,-1.2077 -7.3064,-7.6048 -11,-14.2156 -11.4636,-20.5177 -14.9164,-23.4984 -29.6096,-25.56 -7.9187,-1.1109 -14.8644,-3.4156 -18,-5.9724 -2.8083,-2.2896 -9.8308,-6.4488 -15.6059,-9.2428 -12.594,-6.0925 -12.8085,-7.5189 -4.2304,-28.1245 6.536,-15.7007 18.5455,-30.6619 24.612,-30.6619 4.1256,0 11.5851,-5.0508 28.4076,-19.2349 6.7591,-5.6988 14.1596,-10.9555 16.4459,-11.6811 9.706,-3.0804 34.7781,14.4364 37.2473,26.0232 1.3247,6.2151 1.8355,7.2467 7.6835,15.5144 5.1845,7.3295 2.7228,12.6343 -8.3096,17.9068 -5.146,2.4595 -9.3563,5.7859 -9.3563,7.392 0,5.1903 12.046,11.2431 35.9575,18.0675 28.6848,8.1869 30.5796,10.1065 25.8168,26.1573 -5.4648,18.4167 -11.0907,23.6627 -28.6431,26.7099 -3.7777,0.656 -8.5284,2.6945 -10.5569,4.5301 -4.4935,4.0667 -34.1992,5.8056 -40.8588,2.392 z M 2125,2088.3036 c 14.2107,-3.1577 17.0267,-4.5761 25.1787,-12.6825 10.4149,-10.3564 13.7041,-18.9344 9.0464,-23.5924 -1.6544,-1.6543 -7.9879,-3.6836 -14.0744,-4.5096 -6.286,-0.8531 -13.3791,-3.3207 -16.4195,-5.7124 -3.914,-3.0787 -7.0192,-3.8979 -11.5521,-3.0475 -7.6643,1.4379 -19.2271,-5.6656 -21.9843,-13.5052 -2.2669,-6.4461 2.4439,-14.7944 9.9611,-17.6524 7.0528,-2.6813 7.5657,-5.8617 2.9404,-18.2244 -8.4543,-22.5964 -24.3015,-30.0684 -39.764,-18.7489 -7.3956,5.414 -20.1279,13.8488 -35.9103,23.7896 -17.77,11.1928 -21.0088,27.2568 -8.1665,40.5065 8.2337,8.4952 20.906,14.7364 29.9204,14.7364 11.8917,0 29.8241,19.0455 29.8241,31.6755 0,4.6188 3.7908,8.0328 11.3723,10.2421 6.27,1.8272 7.0645,1.7395 29.6277,-3.2748 z m 128.6892,-43.8576 c -4.2069,-1.2777 -6.0053,-8.3093 -4.0221,-15.7249 2.4092,-9.0087 6.4369,-10.3884 18.8772,-6.4671 5.944,1.8739 12.1632,3.4068 13.8204,3.4068 1.6572,0 8.12,-4.4689 14.3616,-9.9309 12.1584,-10.6395 22.1781,-14.8007 33.0721,-13.7344 12.9067,1.2632 13.3351,11.972 1.0236,25.5989 -11.97,13.2495 -21.6256,16.6127 -49.6104,17.2799 -13.3164,0.3176 -25.7013,0.124 -27.5224,-0.4283 z m 48.4695,-10.6225 c 11.9653,-4.4979 27.8413,-16.6544 27.8413,-21.3184 0,-6.7723 -19.1076,-0.5564 -24.7468,8.05 -4.9064,7.4881 -14.7401,11.1057 -30.1889,11.1057 -13.3787,0 -16.8947,2.4871 -8.5643,6.0579 6.4371,2.7592 22.6759,0.9853 35.6587,-3.8952 z m -64.0883,-20.0312 c -3.1773,-5.9371 -2.5268,-9.282 3.1075,-15.978 5.4792,-6.5116 13.94,-8.2356 18.4221,-3.7535 3.8564,3.8564 2.8564,7.0835 -4.8328,15.5943 -7.9061,8.7513 -13.4873,10.1344 -16.6968,4.1372 z m -112.2585,-26.4831 c -1.2808,-2.3933 -2.778,-9.9469 -3.3271,-16.7857 -0.9304,-11.5912 -0.6584,-12.6567 4.0131,-15.7175 6.4697,-4.2392 14.2005,-1.116 17.6096,7.1143 1.3077,3.1573 3.0004,5.7405 3.7609,5.7405 0.7608,0 3.9839,-2.7144 7.1623,-6.032 9.7965,-10.2253 28.3093,-12.6752 32.7721,-4.3365 2.8283,5.2848 -0.14,8.4252 -10.0117,10.5956 -4.8351,1.0628 -17.5971,6.8465 -28.3599,12.8528 -10.7628,6.006 -19.9561,10.9201 -20.4296,10.9201 -0.4733,0 -1.9088,-1.9581 -3.1897,-4.3516 z m 12.5364,-14.856 c -0.3587,-2.0857 -2.3484,-5.5324 -4.4223,-7.6589 -3.456,-3.5444 -3.8784,-3.5848 -5.068,-0.4847 -1.5661,4.0815 4.4319,13.9379 7.7695,12.7679 1.3049,-0.4575 2.0792,-2.5383 1.7208,-4.6243 z M 2316,1930.5356 c 0,-2.0933 -1.486,-2.9189 -4.5,-2.5 -7.6613,1.0655 -6.8428,-6.7809 1.4692,-14.0788 10.184,-8.9417 13.0308,-8.3221 13.0308,2.836 0,5.0224 -0.9316,10.8724 -2.0704,13 -2.4812,4.6363 -7.9296,5.1467 -7.9296,0.7428 z m -431.2812,-150.4048 c -5.3236,-3.4289 -11.2208,-18.6005 -10.0455,-25.8436 3.2076,-19.7661 25.4568,-22.5048 32.036,-3.9433 1.5979,4.5077 -2.7241,13.9977 -10.8822,23.8952 -6.405,7.7701 -7.385,8.29 -11.1083,5.8917 z m 9.9552,-20.1092 c 2.7787,-3.0701 2.8805,-4.2049 0.6517,-7.2532 -3.6668,-5.0144 -11.3256,-0.9817 -11.3256,5.9635 0,6.0089 5.7719,6.7065 10.6739,1.2897 z m -84.5203,8.1399 c 0.1896,-14.1811 3.9399,-27.2707 8.0396,-28.0603 1.6907,-0.3256 5.4888,1.3076 8.4403,3.6292 6.2315,4.9019 7.3759,16.1723 2.368,23.322 -2.8003,3.9979 -14.9139,12.6091 -17.7376,12.6091 -0.6952,0 -1.1948,-5.1751 -1.1103,-11.5 z m 1405.5191,-0.3963 c -16.602,-5.2237 -24.2573,-10.72 -37.2572,-26.7492 -7.0664,-8.7132 -13.1397,-14.3545 -15.4536,-14.3545 -3.8613,0 -4.9252,2.8893 -7.95,21.592 -2.2504,13.9153 -19.592,15.228 -32.3697,2.4501 -7.5579,-7.5577 -8.3931,-13.7481 -3.3023,-24.476 5.5936,-11.788 12.9859,-15.0148 31.0523,-13.5544 9.7776,0.7904 16.8972,0.4388 19.5177,-0.9637 2.2692,-1.2143 7.6564,-9.23 11.9716,-17.8127 10.0531,-19.9944 16.5556,-27.6065 25.9995,-30.436 9.122,-2.7329 16.4664,0.1013 22.9392,8.8515 3.8481,5.2024 4.134,7.8784 3.6032,33.7248 -0.4323,21.0404 0.2132,30.7908 2.576,38.9181 2.6277,9.0395 2.7237,11.7147 0.5765,16.0712 -4.6293,9.3932 -9.0977,10.768 -21.9032,6.7388 z M 3228,1734.806 c 0,-33.7733 -2.9757,-55.1121 -8.318,-59.6445 -5.8232,-4.9408 -8.7772,-4.4083 -16.6376,3 -6.3876,6.0201 -23.0444,39.5005 -23.0444,46.32 0,1.4521 1.8944,5.0488 4.2099,7.9924 2.3153,2.9436 6.2037,9.14 8.6409,13.7697 3.6956,7.0203 5.902,8.8063 13.2903,10.7568 4.8724,1.2864 11.784,2.4115 15.3589,2.5 l 6.5,0.162 z m -82.0704,10.9868 c 2.7956,-5.2236 2.618,-14.7837 -0.3296,-17.7313 -3.5028,-3.5028 -9.7056,-2.9304 -17.1,1.578 -8.4344,5.1425 -8.2036,8.72 0.9643,14.9497 8.9348,6.0715 13.6748,6.4179 16.4653,1.2036 z m 834.0264,8.8307 c -11.6785,-10.1139 -17.0737,-12.7647 -32.3017,-15.8707 -8.3211,-1.6969 -17.3099,-10.5233 -23.7891,-23.3584 -6.6985,-13.27 -10.4569,-14.6348 -18.0165,-6.5429 -2.6668,2.8545 -7.3428,6.4876 -10.3915,8.0736 -4.898,2.548 -6.3464,2.502 -12.4505,-0.3947 -9.1119,-4.3237 -32.608,-29.3713 -34.1127,-36.3649 -4.1041,-19.0768 -14.3804,-30.2339 -41.0856,-44.6071 -18.4417,-9.9257 -26.4892,-19.5825 -28.7941,-34.5529 -2.4587,-15.9679 -7.0767,-29.2367 -10.8851,-31.2748 -2.0828,-1.1148 -13.0436,-2.6335 -24.3576,-3.3748 -20.536,-1.3459 -20.5833,-1.3611 -28.092,-9.0212 -4.6505,-4.7447 -9.3829,-7.6732 -12.3993,-7.6732 -2.6831,0 -9.5592,-3.15 -15.2803,-7 -11.6141,-7.8159 -15.4457,-8.4236 -24.2852,-3.8527 -3.3476,1.7312 -6.6749,2.5592 -7.394,1.84 -0.7192,-0.7192 -1.7605,-11.0012 -2.3141,-22.8488 -1.0832,-23.1801 -2.66,-27.0857 -11.7411,-29.0801 -10.5788,-2.3236 -21.7645,-16.8211 -29.3648,-38.0584 -4.3872,-12.2596 -7.7112,-16.3083 -17.4837,-21.2959 -10.3916,-5.3036 -15.4171,-10.7625 -15.4171,-16.7472 0,-7.9344 -7.2889,-10.1789 -19.6853,-6.0616 -22.9171,7.6119 -34.6095,2.8792 -38.0224,-15.39 -0.9724,-5.2052 -2.9092,-10.8392 -4.3043,-12.5197 -1.3948,-1.6808 -10.2864,-6.738 -19.7592,-11.2387 -23.6109,-11.2176 -27.4616,-14.3413 -34.2472,-27.7833 -6.8557,-13.5813 -12.1376,-17.9297 -21.9265,-18.0515 -3.8803,-0.048 -10.2051,-1.2956 -14.0551,-2.772 -16.2476,-6.23 -31.5488,-11.369 -39.5,-13.2662 -5.1204,-1.2218 -8.5,-3.172 -8.5,-4.905 0,-5.1486 -8.896,-8.8922 -30.3069,-12.7532 -21.6611,-3.9062 -34.9872,-9.1918 -43.6931,-17.3298 -10.4045,-9.726 -16.924,-10.8824 -38,-6.7406 -25.618,5.0342 -43.4444,4.9824 -50,-0.146 -7.4257,-5.8086 -14.5028,-4.952 -24.3445,2.946 -4.7604,3.8204 -12.8771,9.2084 -18.0368,11.9736 -19.5003,10.4502 -61.3651,18.5014 -79.0367,15.2 -22.4696,-4.1978 -25.2105,-26.824 -4.9505,-40.8642 9.5476,-6.6166 32.9548,-15.155 41.7049,-15.2132 8.21,-0.054 12.6636,-1.828 12.6636,-5.0422 0,-1.4146 -1.4236,-3.1184 -3.1636,-3.786 -6.1673,-2.3668 -34.1672,-1.1684 -45.9161,1.965 -25.4935,6.7992 -63.3631,-0.194 -83.2608,-15.3734 -10.4248,-7.9532 -10.9351,-8.1082 -23.1731,-7.043 -6.8825,0.5992 -18.1325,3.4668 -25,6.3726 -17.4909,7.4008 -22.9461,8.0654 -30.9261,3.7678 -5.1636,-2.7808 -7.3199,-5.686 -9.066,-12.2148 -1.2603,-4.7114 -3.4696,-9.0184 -4.91,-9.571 -3.7956,-1.4566 -11.6655,1.9382 -27.9023,12.0356 -15.8913,9.883 -25.9485,20.1022 -27.9337,28.3838 -3.474,14.4928 -8.8319,20.4696 -31.7483,35.4148 -8.8,5.739 -18.25,12.7804 -21,15.6476 l -5,5.213 -7.2612,-7.0788 -7.2612,-7.0786 -4.1389,4.4428 c -6.1827,6.6362 -10.3831,16.6854 -11.7308,28.0664 -1.4707,12.4164 -3.9875,13.6848 -23.6079,11.8976 -17.7841,-1.62 -22.8852,-0.6236 -24.9773,4.8792 -2.4972,6.5681 -18.4716,19.8189 -32.9291,27.3146 l -12.7428,6.6068 -14.2096,-3.6856 c -10.4273,-2.7044 -17.3997,-3.3244 -26.1948,-2.3293 -22.4613,2.5412 -28.6845,5.5389 -43.7232,21.0628 l -13.8865,14.3344 6.0413,6.8808 c 6.5456,7.4548 6.8127,12.7128 1.5192,29.9045 -2.3156,7.52 -2.0533,8.8984 4.1299,21.7191 3.6312,7.5292 7.0173,18.0108 7.5249,23.2925 0.7783,8.0988 0.104,10.6756 -4.298,16.448 -2.8713,3.7647 -5.8005,9.744 -6.5093,13.2875 -0.9032,4.5164 -2.1531,6.1108 -4.1803,5.3329 -1.5904,-0.6104 -3.718,-1.1096 -4.728,-1.1096 -3.8116,0 -1.6808,-11.878 3.1636,-17.6353 7.1767,-8.5288 6.8135,-21.6891 -1.0253,-37.1464 -6.6315,-13.0772 -7.3143,-20.3324 -3.0323,-32.2183 3.9675,-11.0129 3.7539,-13.9676 -1.4477,-20.0148 l -4.5055,-5.238 -12.9945,6.038 c -7.1471,3.3211 -22.6895,8.6563 -34.5384,11.856 -22.972,6.2039 -27.7203,9.1236 -33.6132,20.6696 -5.2219,10.2311 -12.2528,15.1032 -25.4647,17.6456 -29.8536,5.7448 -69.0029,20.4984 -85.1349,32.0836 -14.0243,10.0715 -27.6284,11.078 -112.1,8.2944 -75.9296,-2.502 -105.8432,-4.9017 -116.4748,-9.344 -4.0823,-1.7056 -7.9212,-5.6049 -10.5055,-10.6708 -2.24,-4.3905 -6.7189,-9.8672 -9.9536,-12.1704 -6.1064,-4.3481 -32.4456,-16.1492 -36.0441,-16.1492 -1.1295,0 -3.4832,4.9175 -5.2304,10.9279 -6.1612,21.1933 -15.4612,25.1176 -31.77,13.4056 -10.3088,-7.4035 -14.4572,-7.7407 -28.6864,-2.3324 -12.5771,4.7801 -29.2067,5.1589 -37.464,0.8533 -3.292,-1.7165 -8.6247,-6.3228 -11.8504,-10.2361 -5.3854,-6.5332 -15.6878,-12.6183 -21.3638,-12.6183 -1.2805,0 -5.3601,3.2148 -9.0657,7.144 l -6.7377,7.144 -5.4986,-4.3257 c -7.3968,-5.8191 -16.5637,-9.4744 -33.3154,-13.2844 -17.9938,-4.0927 -26.2435,-11.3676 -24.572,-21.6684 2.8285,-17.4296 10.5662,-26.0808 35.8337,-40.0648 17.3697,-9.6132 19.5496,-14.5687 9.1877,-20.886 -8.5886,-5.2364 -18.3176,-5.1507 -25.5894,0.2257 -5.3662,3.9675 -7.469,4.2019 -28.419,3.1684 -25.4293,-1.2544 -43.624,-5.7744 -43.624,-10.8376 0,-1.7761 3.6,-6.5532 8,-10.6152 7.2932,-6.7332 8,-8.2738 8,-17.4414 0,-11.7016 3.4944,-22.669 11.0222,-34.5938 2.9484,-4.6706 4.559,-9.0484 3.5792,-9.7284 -0.98,-0.68 -6.6912,-4.9386 -12.6916,-9.4634 -11.5727,-8.727 -21.0534,-12.773 -29.9292,-12.773 -2.9823,0 -8.473,-2.0576 -12.2015,-4.5726 -3.7285,-2.515 -9.8229,-5.8234 -13.5433,-7.352 -6.6215,-2.721 -6.884,-2.635 -12.4462,4.0726 -3.125,3.7686 -5.7062,7.977 -5.7358,9.352 -0.099,4.5834 -7.9786,10.5 -13.9843,10.5 -3.2619,0 -10.188,2.7 -15.3916,6 -7.9213,5.0236 -11.5028,6 -22.0071,6 -11.4897,0 -13.7269,-0.7638 -26.5701,-9.0722 -7.7132,-4.9896 -18.146,-12.6396 -23.184,-17 -5.038,-4.3602 -10.8319,-7.9278 -12.8752,-7.9278 -4.8644,0 -12.0415,11.7634 -12.0415,19.736 0,5.6662 -0.5893,6.264 -6.1758,6.264 -6.1504,0 -6.17,-0.034 -4.7855,-8.5 0.7645,-4.675 3.6757,-11.538 6.4691,-15.2512 4.9653,-6.6002 5.3396,-6.7276 16.7397,-5.6938 10.1459,0.92 13.0309,2.2128 22.2067,9.951 5.8001,4.8916 16.2996,12.672 23.3318,17.29 14.0267,9.2108 19.4048,9.5626 29.1386,1.906 2.8117,-2.2118 9.3122,-5.0746 14.4456,-6.3618 9.3744,-2.3506 10.175,-3.159 19.5885,-19.7788 3.0048,-5.305 2.9241,-5.5194 -3.2903,-8.7328 -3.5038,-1.812 -14.6669,-11.198 -24.8069,-20.8578 -15.2927,-14.5686 -20.2848,-18.1008 -29.2765,-20.7148 -21.163,-6.1522 -34.2294,-19.7436 -40.5816,-42.2118 -3.6492,-12.9076 -9.7338,-23.0442 -13.8323,-23.0442 -1.4061,0 -5.4447,1.4408 -8.9747,3.2018 -11.9054,5.9392 -32.0112,-1.459 -42.2037,-15.5292 -8.3416,-11.5154 -28.0069,-50.6274 -39.1121,-77.7896 -9.8188,-24.0157 -16.8092,-38.3751 -21.7132,-44.60227 -1.7712,-2.24918 -8.3122,-4.84574 -16.5482,-6.56928 -19.1353,-4.0044 -29.3889,-9.53528 -43.6545,-23.54762 -8.6003,-8.44772 -14.6511,-16.82232 -19.8056,-27.41206 -4.082,-8.38648 -11.7279,-20.08648 -16.9907,-26 -16.6209,-18.67608 -16.7482,-19.17516 -15.8253,-62.08124 l 0.8093,-37.62652 -13.0762,-4.2976 c -28.3903,-9.33071 -33.5522,-14.39436 -36.1671,-35.47887 -1.1524,-9.29281 -4.1796,-18.19873 -10.2716,-30.21868 -12.1436,-23.96057 -12.5292,-24.25904 -26.9245,-20.84461 -16.119,3.82328 -33.8091,-0.1092 -51.166,-11.37383 -10.2259,-6.63661 -13.7825,-7.94704 -19.2255,-7.08353 -8.2639,1.31101 -12.3215,4.52036 -12.3215,9.7456 0,3.70217 -0.8636,3.89748 -11.5,2.60057 -11.3956,-1.38945 -14.3704,-1.48532 -37.3709,-1.20412 -15.6302,0.1912 -18.4318,-0.90257 -19.7969,-7.72796 -0.6532,-3.26592 -7.1918,-12.24301 -15.2382,-20.92104 -7.7517,-8.36025 -14.094,-16.09105 -14.094,-17.17957 0,-1.08852 -3.4155,-3.72159 -7.59,-5.85124 -7.4616,-3.80664 -7.7745,-3.80844 -18.5,-0.106 -18.3619,6.3386 -31.6526,4.65664 -42.1243,-5.33092 l -5.2143,-4.9732 -15.0081,7.9042 -15.0082,7.90421 -8.3528,-3.73969 c -6.004,-2.68808 -9.1829,-5.72611 -11.3044,-10.80376 -3.3708,-8.0674 -9.3773,-9.44476 -13.3621,-3.06408 -3.9154,6.26953 -13.4761,5.10809 -25.385,-3.08379 l -10.29804,-7.0838 -6.0512,4.30884 c -10.06972,7.17035 -23.80161,2.4734 -23.80161,-8.1412 0,-6.9108 -4.81732,-11.47132 -8.70719,-8.24301 -1.67753,1.39224 -6.20764,1.76697 -11.91068,0.98528 -8.48584,-1.16311 -9.59674,-0.79412 -14.24666,4.73197 -7.66872,9.11376 -23.45172,15.09968 -40.28372,15.27815 -11.81468,0.1252 -15.77316,-0.74631 -24,-5.28423 -42.66154,-23.53204 -48.16337,-24.34881 -73.23817,-10.87276 -21.27025,11.43136 -25.61248,12.36791 -38.32389,8.26571 -14.87508,-4.80047 -59.51868,-26.55953 -79.15488,-38.5797 -20.67103,-12.65361 -24.29195,-13.61092 -58.13483,-15.36957 -14.85,-0.77171 -28.97085,-2.14968 -31.37969,-3.06223 -5.88115,-2.22792 -7.978,-10.62541 -11.69836,-46.84961 -4.12167,-40.13164 -6.49215,-47.70576 -20.13942,-64.34916 -19.14948,-23.35355 -23.08216,-32.71359 -28.84424,-68.65084 -1.32277,-8.25 -4.09957,-19.5 -6.17065,-25 -5.11616,-13.58651 -4.73287,-26.4194 1.32844,-44.47568 2.80284,-8.34952 4.82784,-17.00399 4.5,-19.23211 -0.34459,-2.34185 -4.39343,-6.26085 -9.59608,-9.28833 -16.94796,-9.86223 -17.67899,-23.69376 -2.05843,-38.94684 13.66735,-13.34579 10.15044,-14.54376 -11.41468,-3.88824 l -14.50852,7.1688 -7.05768,-4.36188 c -3.88172,-2.39904 -8.48604,-7.12404 -10.23181,-10.50003 -7.29447,-14.10592 1.90569,-38.55276 16.90368,-44.91676 11.62081,-4.93099 28.95104,-4.45936 35.74889,0.97285 11.8344,9.45695 14.97632,11.01367 22.2288,11.01367 4.11396,0 11.37419,-1.98672 16.13386,-4.41491 11.06148,-5.64316 21.21149,-4.2082 32.85224,4.64451 9.08488,6.90897 14.91092,15.22039 30.40365,43.37383 20.50835,37.26777 38.96279,53.79964 73.33068,65.69109 10.26812,3.55283 27.93932,10.85851 39.26932,16.23483 23.61432,11.20552 38.51912,24.57301 47.16736,42.30245 5.65692,11.59703 6.6478,19.33208 4.43536,34.62275 -1.20721,8.34325 -0.68117,11.48997 3.17516,18.99349 4.31655,8.39895 5.45619,9.20864 17.23836,12.24764 6.93895,1.78976 17.28895,6.41572 23,10.27991 5.71107,3.86417 13.7732,8.58716 17.91584,10.49548 13.83625,6.37373 49.05029,52.34581 57.86405,75.54176 5.85302,15.40389 9.4909,21.60489 15.77862,26.89565 5.95132,5.00771 13.82526,25.66788 13.82526,36.27565 0,7.49617 5.81126,10.74913 13.8095,7.73013 4.93712,-1.86356 7.89964,-1.74172 14.63575,0.60189 7.18613,2.5002 8.76612,4.08575 10.59469,10.63192 1.95264,6.99036 2.40752,7.38211 4.97696,4.28612 3.69276,-4.44949 19.53246,-3.15673 27.14996,2.21587 2.9669,2.09248 6.6436,4.70449 8.1706,5.80449 1.9433,1.39983 3.2815,1.19064 4.4593,-0.69705 1.8191,-2.91535 19.9773,-3.91431 27.5361,-1.51488 2.3831,0.75645 5.2654,4.05048 6.4052,7.32004 2.8247,8.10304 6.842,9.09573 15.4014,3.80573 4.9035,-3.03052 11.5374,-4.77828 20.5507,-5.41425 12.8832,-0.90903 13.4867,-0.73975 18.8253,5.28064 6.5228,7.35584 11.3633,7.76988 25.9631,2.22077 5.7868,-2.19944 12.5563,-3.99944 15.0433,-4 7.901,-10e-4 22.7373,8.39131 28.2255,15.96755 2.9158,4.02516 8.7114,10.31249 12.8792,13.97185 7.4849,6.57176 13.3236,15.28131 15.4558,23.05511 1.0153,3.70152 2.8057,3.99581 24.335,4 12.7815,10e-4 23.2098,-0.44551 23.1741,-0.99551 -0.4476,-6.88 6.9162,-10 23.602,-10 13.724,0 19.0653,1.94948 34.7522,12.68392 9.4211,6.44676 7.9426,6.27215 40.3658,4.76807 8.6912,-0.40319 9.2664,-0.7656 8.6377,-5.44196 -0.3704,-2.75552 -0.7356,-6.01427 -0.8113,-7.24167 -0.076,-1.2274 -6.4939,-9.3274 -14.2624,-18 -7.7686,-8.6726 -14.639,-18.28292 -15.2676,-21.35628 -0.6287,-3.07333 -7.3311,-12.40077 -14.8944,-20.72761 -15.2081,-16.7434 -16.7776,-20.40388 -15.0397,-35.07743 1.4038,-11.85295 -1.6872,-20.67755 -10.9302,-31.20471 -16.1253,-18.36569 -20.8258,-46.25117 -10.8688,-64.47856 11.4543,-20.96821 13.0962,-25.82104 15.2392,-45.03965 1.2104,-10.85415 3.0582,-21.33731 4.1065,-23.29591 1.1058,-2.0662 5.2836,-4.10128 9.9522,-4.8478 11.2963,-1.80636 20.0732,-8.27981 25.3274,-18.68033 5.223,-10.33875 5.6471,-20.62996 1.4863,-36.06008 -1.6315,-6.05 -3.544,-18.65 -4.25,-28 -1.3599,-18.00811 -3.2312,-24 -7.4955,-24 -1.4402,0 -7.7609,4.5 -14.046,10 -6.2852,5.5 -12.9502,9.99664 -14.8112,9.99252 -5.0534,-0.012 -16.3836,-7.50923 -16.3836,-10.84224 0,-4.19964 26.0675,-50.66163 32.0721,-57.16432 3.7342,-4.04395 7.8315,-5.87243 15.5325,-6.93159 16.4641,-2.2644 18.6797,-11.43468 7.993,-33.08416 -8.9377,-18.10635 -9.8085,-34.24172 -3.0489,-56.49741 2.7516,-9.06004 5.5179,-19.32975 6.1469,-22.82159 1.783,-9.89581 -1.6732,-26.19569 -10.548,-49.74656 -4.4812,-11.89168 -8.0592,-24.835017 -7.9512,-28.762957 0.2471,-8.9835 26.0094,-86.6572863 29.0571,-87.60786639 8.2269,-2.56594011 3.7532,20.55058439 -9.9539,51.43388439 -13.6334,30.717282 -13.8279,39.147322 -1.5181,65.794759 11.7596,25.45678 14.1895,40.12081 9.2073,55.56606 -7.5033,23.26084 -3.0545,50.86273 12.1332,75.27936 l 5.2202,8.39211 -1.1699,-126.00001 c -0.7548,-81.295639 -0.4716,-127.0643793 0.7983,-128.9999993 1.4061,-2.1433041 1.9769,0.44876 1.9988,9.0771203 0.02,8.07842 1.355,14.67484 4.0306,19.92288 5.0102,9.82714 5.4019,32.85076 0.8522,50.079822 -5.4738,20.727957 -4.3091,29.115117 8.8388,63.653037 l 3.705,9.73284 4.3347,-6.08756 c 13.0288,-18.29726 16.27,-41.63426 7.8212,-56.314277 -4.2415,-7.3697 -4.3165,-8.27046 -1.6172,-19.396241 3.7273,-15.363321 3.5813,-32.505941 -0.4208,-49.381521 -5.4771,-23.0954644 2.5808,-32.2801047 8.5327,-9.72562 1.37,5.19174 3.2585,27.43952 4.1968,49.43952 0.9382,22.000002 2.234,45.849999 2.8793,52.999999 1.1461,12.69588 0.9712,13.32752 -7.4745,27.00001 l -8.6482,14 -1.1005,62.99998 c -0.6053,34.65002 -1.8393,64.6083 -2.7424,66.57399 -1.7923,3.90147 -11.1624,9.42603 -15.9875,9.42603 -3.9985,0 -6.3494,-4.87207 -8.0702,-16.72452 l -1.4119,-9.72452 -5.3437,4.9962 c -6.4867,6.06468 -14.6607,10.31173 -25.414,13.20453 -4.4387,1.19407 -10.9162,5.1134 -14.3945,8.70967 -7.8242,8.08933 -26.5319,39.23245 -26.5339,44.17148 0,5.84461 10.3758,3.61096 13.4822,-2.90176 2.9669,-6.22031 8.8053,-10.32671 22.1749,-15.59648 l 9.7881,-3.85812 1.0137,21.36176 c 0.802,16.90317 2.3208,25.16821 7.2767,39.59913 3.4446,10.03056 6.263,20.42816 6.263,23.10579 0,7.71109 -14.8072,36.29756 -21.8872,42.255 -4.2106,3.54301 -8.7515,5.40184 -13.1959,5.40184 -8.934,0 -10.9141,4.05309 -10.9281,22.36852 -0.014,18.91504 -2.5252,27.50113 -11.0126,37.65997 -15.6338,18.71244 -13.9969,42.069 4.3856,62.57607 8.9867,10.0254 10.6382,14.93477 10.6382,31.62496 0,16.73075 2.5681,22.43392 17.2846,38.38448 5.8934,6.38771 10.7154,12.8194 10.7154,14.29267 0,1.47325 7.677,11.09696 17.0599,21.386 17.7916,19.50972 24.9401,31.126 24.9401,40.52781 0,3.05668 3.117,14.69752 6.9266,25.86856 3.8094,11.17103 7.9324,25.02795 9.1618,30.79316 2.7482,12.88647 6.8302,16.37364 26.2708,22.44232 8.0524,2.51368 15.8924,5.57427 17.4222,6.80131 2.791,2.23876 2.4818,24.42909 -0.8958,64.27417 l -1.1866,14 12.3969,14 c 13.9447,15.74791 24.1856,30.84035 27.4776,40.49457 5.5887,16.38928 30.8471,36.85582 49.8917,40.42658 12.3606,2.3175 23.804,7.8343 29.9768,14.45146 2.4432,2.61902 6.7796,11.93165 9.6367,20.69465 6.3243,19.3981 36.0891,81.335 45.1503,93.9526 10.3237,14.3754 17.4934,17.7994 37.4765,17.8974 l 16.8831,0.082 6.5217,9.4514 c 3.5869,5.1984 8.0176,13.7484 9.846,19 1.8283,5.2518 4.412,11.7832 5.7416,14.5146 3.702,7.6052 22.2487,19.5318 34.2467,22.0224 8.4769,1.76 13.2524,4.5578 24.3026,14.2386 9.609,8.418 21.0932,15.624 38.1142,23.915 13.3988,6.5266 25.857,13.3622 27.6852,15.1902 1.828,1.828 7.7794,4.028 13.2256,4.889 19.8156,3.1324 45.7278,19.7934 45.7278,29.402 0,1.9192 -3.2668,10.2142 -7.2594,18.4332 -6.1842,12.7302 -7.2334,16.8692 -7.0834,27.9436 0.1662,12.274 -0.1816,13.2987 -6.2278,18.3463 -3.5222,2.9401 -5.7775,5.9724 -5.0119,6.738 2.4059,2.4057 34.668,5.5325 42.3044,4.1 4.7636,-0.8939 8.8101,-3.4184 11.6625,-7.2764 2.4943,-3.3736 6.2218,-5.9079 8.6898,-5.9079 5.0705,0 53.5401,30.2912 51.3877,32.1148 -0.8041,0.6812 -9.1119,4.1999 -18.4619,7.8195 -30.4405,11.7836 -48.9104,27.6645 -47.5942,40.9233 0.5156,5.1944 1.6288,6.1996 8.4156,7.5999 4.3018,0.8876 10.7394,3.4172 14.306,5.6213 7.596,4.6947 19.8294,5.5079 46.1802,3.07 l 18.3076,-1.6936 7.4322,10.3451 c 12.3972,17.2557 22.3796,19.8588 42.9525,11.1997 6.5339,-2.75 13.1759,-5 14.7603,-5 1.5844,0 8.5864,2.6992 15.5601,5.9984 19.354,9.156 20.0656,8.8339 22.7632,-10.3009 1.7744,-12.5879 -2.2164,-16.4392 -20.2976,-19.588 -7.5413,-1.3132 -14.9704,-3.4327 -16.5093,-4.7099 -1.5388,-1.2772 -5.682,-8.6396 -9.2071,-16.3608 -6.9629,-15.2524 -9.004,-17.5521 -18.0696,-20.36 -4.2641,-1.3208 -7.2696,-4.4361 -10.3884,-10.7685 -4.7825,-9.7107 -10.1676,-33.0211 -8.1048,-35.0839 0.7064,-0.7064 5.3188,0.6687 10.2495,3.0556 4.9308,2.3871 17.8028,6.0964 28.6044,8.2432 23.2337,4.6179 25.5292,6.6291 27.5057,24.0991 1.4684,12.9797 5.3928,18.5864 19.8892,28.416 2.9527,2.002 8.1064,8.4917 11.4531,14.4216 7.2965,12.9288 16.2993,21.2156 29.2168,26.8936 5.982,2.6293 14.1636,9.1065 21.8045,17.2624 11.5375,12.3145 12.8968,13.1516 24,14.7764 6.4736,0.9473 51.9684,3.3192 101.0999,5.2708 l 89.3297,3.5481 13.8911,-9.2368 c 19.1917,-12.7617 35.7992,-20.822 46.4493,-22.5441 4.95,-0.8003 12.0107,-3.2863 15.6903,-5.5244 4.4257,-2.6919 11.5333,-4.3996 21,-5.0459 17.9269,-1.2237 20.7652,-2.7224 25.5217,-13.4752 5.436,-12.2893 12.8304,-17.598 32.0208,-22.9893 33.1723,-9.3192 61.9587,-23.4455 70.4875,-34.59 13.2268,-17.2836 13.6668,-17.5947 27.2877,-19.2936 7.1456,-0.8915 16.4771,-3.0816 20.7363,-4.8672 9.7524,-4.0884 13.1501,-4.076 29.4769,0.108 l 13.2211,3.388 11.66,-5.7048 c 6.4128,-3.1376 16.968,-10.8347 23.4556,-17.1047 11.0369,-10.6668 12.5696,-11.481 23.8281,-12.6578 15.2912,-1.5982 21.8571,-4.7776 25.3876,-12.2934 5.1107,-10.8794 16.6163,-27.0484 20.9556,-29.4494 2.3491,-1.2998 9.2255,-2.4128 15.2811,-2.4734 21.0081,-0.2104 50.3012,-20.4334 53.1485,-36.692 1.8855,-10.7658 5.5096,-15.4056 18.3512,-23.4936 6.3196,-3.98 15.6247,-11.6548 20.6783,-17.055 10.3497,-11.0598 14.1145,-11.8624 27.3869,-5.8386 6.1672,2.799 9.3959,5.8556 11.4968,10.884 2.6859,6.4282 7.9724,11.1362 12.5044,11.1362 1.0119,0 4.2672,-2.25 7.2347,-5 3.9321,-3.6442 7.6717,-5.019 13.792,-5.0702 4.6184,-0.038 14.1625,-1.3064 21.2096,-2.8174 14.9621,-3.2078 16.3909,-2.842 27.8421,7.1286 9.8532,8.5792 26.3932,14.7174 47.6752,17.693 11.2731,1.576 18.3128,1.318 33,-1.209 20.3432,-3.5004 49.7771,-2.9492 57.292,1.0728 5.1764,2.7702 5.8092,10.4854 1.2352,15.0594 -1.7285,1.7286 -3.7536,3.1584 -4.5,3.1776 -16.3052,0.4172 -57.7112,18.0676 -63.6509,27.1328 -4.1307,6.3042 -0.7219,12.1108 9.9552,16.9586 10.3516,4.7 31.676,5.287 35.2584,0.9704 1.3253,-1.5968 9.6156,-5.236 18.4225,-8.0872 16.4015,-5.3094 24.9987,-9.9528 40.9008,-22.0912 10.7775,-8.2268 20.1231,-9.1784 25.9468,-2.6422 7.5032,8.421 15.2092,10.1112 31.0456,6.8092 7.8299,-1.6326 17.4839,-4.8846 21.4535,-7.2268 11.9305,-7.039 22.906,-5.0262 39.3109,7.2096 11.1119,8.2878 22.9272,13.008 42.5152,16.9844 11.5499,2.3448 23.9647,6.3854 30.4848,9.9222 25.8767,14.0362 41.2567,20.4742 57.2724,23.9742 18.3448,4.0088 23.096,7.0204 28.8448,18.2842 7.0975,13.9059 14.2855,20.1859 33.0987,28.9176 20.0536,9.3076 23.4157,12.7104 27.9872,28.3256 1.6868,5.7619 4.4593,11.2555 6.1612,12.2079 1.8516,1.0361 8.4228,0.6112 16.3649,-1.0587 15.9191,-3.3472 28.3308,-2.7829 30.244,1.3747 5.6703,12.3208 7.9472,15.4729 13.7251,19 14.3704,8.7725 23.34,16.4177 24.742,21.0888 0.8105,2.7012 2.8744,10.1068 4.586,16.4572 4.1473,15.3861 11.4021,23.3561 22.6313,24.862 10.4284,1.3984 12.3424,5.018 12.3424,23.34 0,14.2728 2.2892,18.2588 11.4559,19.946 3.5508,0.6536 12.3029,4.8809 19.4492,9.3944 7.1464,4.5132 16.3912,9.1236 20.5441,10.2452 4.1531,1.1213 9.9255,4.2773 12.8276,7.0129 5.806,5.4731 16.1808,8.5324 29.1828,8.6059 11.2055,0.064 23.508,5.1741 27.6423,11.4837 1.8368,2.8032 4.122,11.3272 5.0781,18.942 3.0192,24.0452 8.8612,31.5171 26.8135,34.294 4.3964,0.68 9.0549,2.6883 10.3524,4.4624 1.2973,1.7744 5.3501,4.7199 9.0065,6.5459 4.0808,2.0377 6.8968,5.0761 7.2932,7.8688 0.3551,2.5021 2.9528,6.0612 5.7728,7.9089 5.5916,3.6636 10.5816,13.65 10.5816,21.1767 0,9.8341 23.264,35.2925 32.2992,35.3457 1.8147,0.02 8.1147,-3.6108 14,-8.0477 15.4408,-11.6408 18.8711,-10.6596 28.0432,8.0212 8.1099,16.5169 13.4396,22.0237 21.3792,22.09 9.1787,0.076 22.1196,7.4709 35.412,20.2349 7.0764,6.7955 12.8664,13.1124 12.8664,14.038 0,4.5739 -8.5885,0.5652 -20.044,-9.3549 z M 2089.7367,1418.6534 c 3.5376,-3.3702 1.2537,-6.991 -4.4096,-6.991 -4.6312,0 -12.4968,-4.613 -16.8951,-9.9082 -6.9128,-8.3226 -8.828,-12.7436 -10.4296,-24.0748 -2.3757,-16.8074 -3.7437,-18.017 -20.3788,-18.017 -23.7656,0 -28.2485,6.1958 -11.1236,15.373 10.642,5.703 11.676,7.1002 21.6355,29.2306 2.3769,5.282 6.4913,11.0254 9.1433,12.7628 10.0836,6.6072 26.3723,7.4224 32.4579,1.6246 z M 909.87728,636.32398 c 12.09916,-3.9076 20.12276,-12.24687 20.12276,-20.91446 0,-7.24389 -3.64484,-14.52261 -16.30492,-32.56088 -5.3323,-7.59752 -9.69508,-15.73556 -9.69508,-18.08453 0,-5.777 -14.9987,-34.37916 -25.65796,-48.92919 -4.76188,-6.50001 -11.19264,-12.86809 -14.29054,-14.15129 -3.09792,-1.28319 -8.41006,-5.78928 -11.80475,-10.01351 -3.39468,-4.22424 -10.91393,-10.00964 -16.70945,-12.85645 -5.79552,-2.84683 -14.72164,-7.94396 -19.83584,-11.32699 -5.11423,-3.38304 -12.95252,-6.64105 -17.41847,-7.24008 -11.89128,-1.59493 -14.55393,-5.75444 -16.67636,-26.05113 -4.96868,-47.51555 -9.33961,-58.15515 -27.93388,-67.99599 -5.75436,-3.04545 -12.95208,-7.91025 -15.99496,-10.81068 -3.74865,-3.57317 -9.26385,-5.93521 -17.10516,-7.32576 -6.36493,-1.12876 -16.52264,-3.91505 -22.57264,-6.1918 -28.30693,-10.65252 -63.43196,-37.3413 -68.19005,-51.81238 -1.33763,-4.0681 -6.41256,-12.29062 -11.27767,-18.27224 -4.86509,-5.98162 -10.94476,-14.98162 -13.51037,-20 -5.70735,-11.16368 -15.59023,-20.9074 -25.32347,-24.96689 -6.81604,-2.8428 -7.63497,-2.78304 -12.31545,0.89864 -9.77683,7.69045 -33.29999,4.31269 -47.98854,-6.8908 -13.54672,-10.33257 -29.55877,-7.93092 -38.54325,5.78112 -4.47603,6.83127 -4.60099,19.08523 -0.26215,25.70711 5.03107,7.67838 12.27715,6.9471 24.73204,-2.496 19.33844,-14.66206 22.68468,-14.40488 22.67143,1.7425 -0.008,10.06666 -4.85943,19.79824 -14.2008,28.48726 -3.18544,2.963 -5.76004,6.113 -5.72131,7 0.0388,0.887 6.11372,5.66274 13.5,10.61274 16.32751,10.94208 16.93543,13.53716 9.34883,39.90774 -5.86663,20.39203 -5.80571,25.9376 0.56129,51.09227 2.22743,8.8 5.55123,22.84332 7.38624,31.20737 4.47015,20.37503 12.63715,36.994 24.75626,50.37636 11.60964,12.81976 12.73137,16.76427 17.29265,60.80819 1.61719,15.61556 4.18331,31.36556 5.70252,35 4.90923,11.74452 7.13884,12.50473 40.18628,13.7022 34.32823,1.24385 41.7696,3.52044 61.19552,18.72189 13.05907,10.21919 20.52968,14.1908 30,15.94888 3.85,0.71475 13.70896,5.33503 21.90879,10.26731 18.25444,10.98027 28.05057,11.82436 43.25225,3.72691 5.41143,-2.88251 13.22803,-7.03351 17.3702,-9.22447 5.29636,-2.80147 11.29123,-3.96187 20.20199,-3.91047 13.75685,0.0795 22.9046,3.15964 37.83348,12.73947 18.7164,12.01031 32.77594,14.28403 51.31054,8.29803 z M 1382.2856,276.1623 c 2.8433,-8.21508 3.4624,-66.77554 0.9173,-86.77632 -1.7232,-13.54294 -5.5861,-20.0529 -9.5682,-16.12454 -3.4394,3.39302 -5.0867,96.52532 -1.8555,104.90086 2.9701,7.69878 7.4444,6.84704 10.5064,-2 z m 464.1729,1471.1585 c -3.6081,-3.608 -2.9953,-12.5526 1.1148,-16.2722 9.0123,-8.156 34.4268,-13.0718 34.4268,-6.659 0,5.1972 -10.081,13.0302 -17.5826,13.6616 -5.8556,0.493 -7.4851,1.576 -8.4262,5.6006 -1.3137,5.6186 -5.8408,7.361 -9.5328,3.669 z m 1396.9158,-13.2678 c -9.3732,-9.7836 -5.8236,-21.6824 11.6017,-38.8906 7.1879,-7.0982 11.4552,-6.942 17.8463,0.6534 8.9265,10.6088 6.1233,20.935 -9.624,35.4504 -5.0099,4.6178 -10.3107,8.3962 -11.7795,8.3962 -1.4688,0 -5.0888,-2.5242 -8.0445,-5.6094 z m 17.5796,-14.7336 c 8.0401,-3.6632 9.3993,-15.657 1.7744,-15.657 -3.996,0 -14.7283,10.8182 -14.7283,14.8462 0,3.7464 5.7244,4.1048 12.9539,0.8108 z m -138.3552,-36.157 c -12.1868,-13.38 -10.8228,-25.5 2.87,-25.5 7.0852,0 8.9437,4.3032 4.0897,9.47 l -4.4133,4.698 5.8685,4.6794 c 5.0735,4.0454 5.5048,5.1182 3.1827,7.916 -3.6547,4.4036 -6.7423,4.0674 -11.5976,-1.2634 z m 32.5216,-12.267 c 0.8536,-3.401 0.182,-7.0006 -1.8999,-10.1772 -4.4796,-6.8368 -3.966,-16.6232 1.3667,-26.0388 6.0264,-10.6406 10.0285,-10.9996 18.7284,-1.6794 15.5092,16.6154 18.2133,26.337 9.9864,35.9014 -3.9511,4.5934 -6.6711,5.6048 -17.1004,6.3592 l -12.402,0.897 z m 22.5189,-10.7534 c 0.7024,-4.9238 -1.5148,-5.804 -5.2392,-2.0796 -3.5828,3.5828 -2.9117,7.9908 1.1,7.2262 1.9251,-0.367 3.7876,-2.6828 4.1392,-5.1466 z m -10.4889,-15.366 c 1.7117,-6.8204 -0.4063,-9.6526 -5.2716,-7.0486 -5.3339,2.8546 -5.2704,11.935 0.084,11.935 2.5336,0 4.4041,-1.7618 5.1884,-4.8864 z m -38.4707,-12.6136 c -1.2265,-5.225 -1.828,-10.175 -1.3368,-11 1.7415,-2.9244 16.7328,-1.6304 17.9531,1.5496 1.3829,3.6044 -8.2288,18.9504 -11.8695,18.9504 -1.3844,0 -3.5204,-4.275 -4.7468,-9.5 z M 1971.2141,1324.4988 c -2.4741,-6.4474 -1.0244,-24.0606 2.6456,-32.1432 6.0063,-13.228 16.4894,-13.2002 22.9118,0.06 3.684,7.6066 1.372,14.2478 -9.1028,26.1478 -8.2136,9.3312 -14.3078,11.5292 -16.4546,5.9346 z m 13.6212,-17.4686 c 4.6104,-3.3712 3.3934,-10.3678 -1.8036,-10.3678 -3.9286,0 -9.6561,8.3714 -7.7916,11.3884 1.4762,2.3884 5.5216,1.958 9.5952,-1.0206 z m -83.8685,16.5782 c -1.9307,-3.1238 2.8355,-30.3462 6.2163,-35.506 3.1541,-4.8138 4.8582,-4.5086 12.317,2.2062 6.2428,5.62 5.9344,15.3422 -0.7382,23.2722 -6.3316,7.5246 -15.9814,12.9624 -17.7951,10.0276 z m 37.1417,-30.8154 c -1.3097,-1.5782 -2.0949,-5.8532 -1.7449,-9.5 0.5413,-5.6388 1.9827,-7.2806 9.6365,-10.9756 4.95,-2.3898 12.823,-4.9436 17.4956,-5.6752 7.0028,-1.0962 8.7307,-0.7172 9.8339,2.1576 2.1005,5.4738 -10.0168,15.297 -17.8796,14.4946 -5.5087,-0.5624 -6.3777,0.086 -7.878,5.868 -1.792,6.9074 -5.5481,8.3484 -9.4635,3.6306 z M 392.29592,211.62477 c -12.05405,-5.46977 -22.56509,-14.19265 -29.35068,-24.35745 -7.89237,-11.8228 -13.18568,-17.60502 -16.1164,-17.60502 -1.36065,0 -7.45657,4.86464 -13.54648,10.81028 -13.44641,13.12792 -23.12217,17.06516 -30.33052,12.34208 -6.6278,-4.3427 -10.35177,-10.46876 -12.67008,-20.84266 -2.517,-11.26296 -8.08185,-16.96604 -21.99252,-22.53878 -17.42644,-6.9812 -25.68073,-13.25106 -30.4702,-23.14476 -5.27216,-10.89086 -3.6518,-15.19316 8.83228,-23.45104 7.86263,-5.2009 9.33196,-5.46558 25.23692,-4.54588 9.28852,0.53712 19.18852,0.1022 22,-0.96662 2.81148,-1.06874 11.8946,-8.54362 20.18472,-16.61082 18.60216,-18.101942 27.16504,-21.345442 40.62904,-15.389682 14.78659,6.54082 36.0846,31.690742 56.26468,66.440542 13.2124,22.75158 18.65624,29.7265 24.30839,31.1451 2.72473,0.68386 5.25352,3.1618 5.91457,5.7957 3.20963,12.78814 -23.18924,46.99936 -36.18961,46.89944 -2.2,-0.016 -7.91684,-1.80811 -12.70411,-3.98043 z m 20.24164,-9.95601 c 5.90715,-4.64656 17.46247,-21.45038 17.46247,-25.39402 0,-1.486 -3.47755,-6.5067 -7.72788,-11.15712 -4.25032,-4.65042 -9.59039,-12.7092 -11.86679,-17.9084 -5.542,-12.65766 -29.2446,-44.33 -47.15637,-63.01218 -12.31668,-12.846442 -15.26451,-14.963242 -19.38711,-13.921722 -2.67401,0.67556 -12.51185,8.053162 -21.86185,16.394682 -27.02644,24.1114 -40.40216,30.59016 -47.82668,23.16562 -7.55664,-7.55662 -24.85704,-3.11414 -27.40487,7.03718 -2.54512,10.14056 10.10968,20.65452 34.85919,28.96198 13.35665,4.4833 16.37236,8.10444 16.37236,19.65928 0,9.71832 4.01369,18.09548 9.30645,19.42388 6.31724,1.58552 14.71795,-4.37172 28.56376,-20.25564 5.75315,-6.6 11.28067,-12 12.28339,-12 3.20361,0 19.78233,21.62344 25.03481,32.65262 4.33107,9.09438 6.58992,11.3588 15.44236,15.48044 12.64244,5.88625 17.31683,6.05704 23.90676,0.8734 z M 1973.8929,1415.6804 c 0.8536,-3.4009 0.182,-7.0005 -1.8998,-10.1772 -4.4796,-6.8368 -3.966,-16.6232 1.3666,-26.0388 6.0264,-10.6405 10.0286,-10.9996 18.7284,-1.6793 15.5091,16.6153 18.2134,26.3369 9.9863,35.9013 -3.9509,4.5935 -6.6709,5.605 -17.1003,6.3592 l -12.402,0.8971 z m 22.519,-10.7533 c 0.7024,-4.9239 -1.5148,-5.804 -5.2392,-2.0796 -3.5828,3.5828 -2.9118,7.9908 1.1,7.2261 1.925,-0.3669 3.7876,-2.6828 4.1392,-5.1465 z m -10.489,-15.366 c 1.7118,-6.8204 -0.4062,-9.6527 -5.2716,-7.0487 -5.3338,2.8547 -5.2704,11.9351 0.084,11.9351 2.5336,0 4.4042,-1.7619 5.1884,-4.8864 z" />
</svg>
