<?xml version="1.0" encoding="UTF-8" standalone="no"?>
<!-- Created with Inkscape (http://www.inkscape.org/) -->

<svg
   width="21.221096mm"
   height="21.077284mm"
   viewBox="0 0 21.221096 21.077284"
   version="1.1"
   id="svg1"
   xml:space="preserve"
   sodipodi:docname="marker-2-gold.svg"
   inkscape:version="1.3.2 (1:1.3.2+202404261509+091e20ef0f)"
   xmlns:inkscape="http://www.inkscape.org/namespaces/inkscape"
   xmlns:sodipodi="http://sodipodi.sourceforge.net/DTD/sodipodi-0.dtd"
   xmlns="http://www.w3.org/2000/svg"
   xmlns:svg="http://www.w3.org/2000/svg"><sodipodi:namedview
     id="namedview1"
     pagecolor="#ffffff"
     bordercolor="#000000"
     borderopacity="0.25"
     inkscape:showpageshadow="2"
     inkscape:pageopacity="0.0"
     inkscape:pagecheckerboard="0"
     inkscape:deskcolor="#d1d1d1"
     inkscape:document-units="mm"
     inkscape:zoom="10.293467"
     inkscape:cx="40.122535"
     inkscape:cy="39.831088"
     inkscape:window-width="1920"
     inkscape:window-height="1019"
     inkscape:window-x="0"
     inkscape:window-y="0"
     inkscape:window-maximized="1"
     inkscape:current-layer="svg1" /><defs
     id="defs1" /><g
     id="layer1"
     transform="translate(-49.727414,-143.78222)"
     style="fill:#ffcc00"><path
       style="fill:#ffcc00"
       d="m 59.479807,164.75897 c -0.0742,-0.0742 -0.981798,-0.17496 -2.016872,-0.2239 l -1.881954,-0.089 -0.90798,-0.73274 c -2.396423,-1.93393 -2.962516,-2.51622 -3.592396,-3.69514 -0.387376,-0.72504 -0.823824,-2.18905 -1.016116,-3.40844 l -0.337074,-2.13749 0.437187,-1.28308 c 0.240453,-0.70569 0.437632,-1.64882 0.438176,-2.09584 0.0024,-1.96787 2.916659,-5.05295 5.972406,-6.32247 l 2.119739,-0.88065 2.312687,-0.054 2.312687,-0.054 1.433711,0.95164 c 0.788541,0.5234 1.50719,1.18315 1.596997,1.46611 0.08981,0.28296 0.514137,0.6959 0.942955,0.91765 1.036754,0.53613 2.6141,2.08744 2.655485,2.61167 0.04411,0.55868 0.07605,0.65673 0.586157,1.79949 0.611602,1.37013 0.548874,2.92195 -0.222253,5.49827 -1.016428,3.39586 -2.27791,4.90845 -5.552476,6.65774 l -2.112792,1.12866 -1.516678,0.0402 c -0.834173,0.0221 -1.577391,-0.0205 -1.651596,-0.0947 z m 2.173842,-2.31988 c 0.475971,-0.10356 0.929482,-0.29198 1.007803,-0.41871 0.07832,-0.12672 0.31747,-0.2304 0.531444,-0.2304 0.542417,0 2.9864,-1.95906 3.96663,-3.17958 1.241689,-1.54608 2.281941,-4.03598 2.002165,-4.79229 -0.143125,-0.3869 -0.122558,-0.79196 0.05462,-1.07566 l 0.284192,-0.45506 -0.585814,-0.62357 c -0.322197,-0.34297 -0.585814,-0.91683 -0.585814,-1.27525 0,-0.78294 -0.68061,-1.82776 -1.190625,-1.82776 -0.201778,0 -0.522448,-0.21938 -0.712601,-0.4875 -0.207429,-0.29249 -0.819101,-0.55018 -1.529067,-0.64418 -0.90944,-0.12041 -1.34525,-0.35506 -1.882868,-1.01377 l -0.699531,-0.85711 -1.556716,-0.0545 -1.556716,-0.0545 -0.815639,0.60944 c -0.448601,0.33519 -1.255499,0.69195 -1.793107,0.79281 -0.537608,0.10085 -1.093178,0.39958 -1.234602,0.66383 -0.141423,0.26425 -0.495384,0.55607 -0.78658,0.6485 -0.291196,0.0924 -0.529447,0.34028 -0.529447,0.55081 0,0.21053 -0.361297,0.70852 -0.802882,1.10665 l -0.802881,0.72387 -0.294792,2.42088 -0.294791,2.42088 0.436215,1.0902 c 0.239918,0.59962 0.441933,1.29616 0.448922,1.54788 0.01587,0.57133 0.848223,2.25896 1.098542,2.22732 0.101865,-0.0129 0.586584,0.37797 1.077153,0.86854 0.581512,0.58151 1.253738,0.95131 1.931459,1.06251 0.571732,0.0938 1.277638,0.26718 1.56868,0.38527 0.56391,0.2288 1.832237,0.17819 3.246651,-0.12957 z m -2.145744,-2.53558 c -0.267625,-0.15558 -0.778077,-0.22716 -1.134338,-0.15905 l -0.647745,0.12382 -1.284036,-1.44065 c -1.285052,-1.4418 -1.606663,-2.2398 -1.606663,-3.98654 0,-0.9784 1.10707,-3.53293 1.91067,-4.40882 0.258819,-0.2821 0.47058,-0.59374 0.47058,-0.69254 0,-0.0988 0.625078,-0.3068 1.389062,-0.46222 l 1.389063,-0.28258 0.318629,0.41384 c 0.192924,0.25057 0.538716,0.35628 0.876485,0.26795 1.25331,-0.32775 4.025368,1.43773 4.495861,2.86334 0.310446,0.94066 -0.111783,4.09367 -0.548195,4.09367 -0.116781,0 -0.293379,0.25536 -0.392438,0.56747 -0.228754,0.72074 -2.235824,2.59986 -2.781544,2.60423 -0.226848,0.002 -0.643566,0.1781 -0.926041,0.39176 -0.61229,0.46311 -0.883214,0.48194 -1.52935,0.10632 z m 0.843718,-2.6355 c 0.34194,0.0124 0.937252,-0.19966 1.322917,-0.47118 0.385664,-0.27153 0.984166,-0.58164 1.330004,-0.68914 l 0.628796,-0.19546 -0.158534,-1.33857 c -0.176678,-1.49177 -1.121337,-2.74023 -2.282352,-3.01635 -0.367834,-0.0875 -0.817618,-0.27627 -0.999519,-0.41955 -0.228263,-0.17979 -0.330729,-0.15482 -0.330729,0.0806 0,0.1876 -0.08579,0.26909 -0.174767,0.16631 -0.18274,-0.21109 -0.171613,-0.5147 -0.830655,-0.23092 0.198069,0.19806 0.212602,0.3175 0.03864,0.3175 -0.153375,0 -0.610824,0.30765 -1.016553,0.68366 l -0.737688,0.68367 -0.07228,1.34174 c -0.09987,1.85392 1.02589,3.55653 2.131846,3.22423 0.291041,-0.0875 0.808935,-0.14888 1.150875,-0.13652 z"
       id="path3" /></g></svg>
