<?xml version="1.0" encoding="UTF-8" standalone="no"?>
<!-- Created with Inkscape (http://www.inkscape.org/) -->

<svg
   width="15.934986mm"
   height="15.049873mm"
   viewBox="0 0 15.934986 15.049873"
   version="1.1"
   id="svg1"
   xml:space="preserve"
   xmlns="http://www.w3.org/2000/svg"
   xmlns:svg="http://www.w3.org/2000/svg"><defs
     id="defs1" /><g
     id="layer1"
     transform="matrix(0.72460229,0,0,1,-38.098345,-28.734269)"><path
       style="fill:#000000"
       d="m 52.857036,30.616039 0.114886,-1.534359 2.299734,0.154888 c 1.264853,0.08519 2.38891,0.165075 2.497905,0.177525 0.108994,0.01245 0.190069,0.677433 0.180164,1.477735 l -0.018,1.455097 1.953369,0.02418 1.953367,0.02418 0.152159,0.597242 c 0.0837,0.328482 0.14919,0.968509 0.145561,1.422281 l -0.0066,0.825039 1.116112,0.163787 c 1.501632,0.220361 1.883895,-0.122964 1.69208,-1.519721 -0.08276,-0.602608 -0.06994,-1.297997 0.02853,-1.545306 l 0.178963,-0.449656 1.803399,0.17409 1.803399,0.174089 0.285921,-0.518716 c 0.157245,-0.285295 0.2925,-1.051266 0.300556,-1.70216 l 0.01464,-1.183441 1.390078,-0.07343 c 0.764542,-0.0404 1.938246,-0.03104 2.608229,0.02076 l 1.218151,0.0942 -0.135341,2.565246 c -0.07443,1.410885 -0.202911,3.159767 -0.285496,3.886405 l -0.150153,1.32116 -2.172304,-0.02689 -2.172302,-0.02689 -0.09923,1.652545 -0.09923,1.652545 -1.244426,0.01507 c -0.684436,0.0083 -1.459595,-0.0099 -1.722573,-0.04061 -0.91673,-0.106783 -1.268833,0.474913 -1.106376,1.827792 l 0.150499,1.253305 -0.62271,0.424774 c -0.823833,0.561969 -3.099771,0.533802 -3.909443,-0.04838 l -0.612007,-0.440055 0.186691,-1.285131 0.186689,-1.285132 -1.265465,-0.04173 c -0.696005,-0.02296 -1.562629,-0.06344 -1.925831,-0.08999 l -0.660366,-0.04825 -0.129005,-1.06001 c -0.19792,-1.626462 -0.3299,-1.724008 -2.366648,-1.749214 l -1.836328,-0.02273 0.08195,-2.578872 c 0.04508,-1.418379 0.133648,-3.269333 0.196839,-4.11323 z m 0.957877,5.43353 c 0.07056,0.117389 0.98361,0.195064 2.029006,0.172614 l 1.900719,-0.04082 0.1699,1.299534 c 0.203337,1.555279 0.440012,1.741633 2.247031,1.769268 l 1.388905,0.02129 -0.01452,1.173311 c -0.008,0.645321 0.10033,1.487026 0.240704,1.870455 l 0.255225,0.697145 1.126152,-0.06747 1.126151,-0.06747 0.100572,-1.577225 c 0.119138,-1.868288 0.38298,-2.253543 1.533601,-2.239303 0.473278,0.0058 1.228134,-0.05816 1.677456,-0.142252 l 0.816949,-0.152901 0.09805,-1.62185 0.09804,-1.621848 2.160184,-0.04974 2.160185,-0.04974 0.164444,-1.244509 c 0.09045,-0.68448 0.206049,-1.958423 0.2569,-2.830986 l 0.09246,-1.586477 -1.587379,-0.01965 -1.587378,-0.01965 -0.290657,1.584025 -0.290656,1.584025 -1.84713,0.109441 -1.847131,0.109443 -0.08361,1.057379 c -0.04599,0.581559 -0.146754,1.32451 -0.223926,1.651001 l -0.140312,0.593622 -1.549268,-0.01917 c -0.852098,-0.01051 -1.9291,-0.10005 -2.39334,-0.198888 l -0.844071,-0.179705 0.164456,-0.622516 c 0.09045,-0.342384 0.09354,-0.920667 0.0069,-1.285073 l -0.157603,-0.662558 -1.890434,0.04185 -1.890436,0.04186 0.08074,-0.792812 c 0.04441,-0.436047 0.01841,-1.180566 -0.05766,-1.654487 L 56.875734,30.21705 55.58052,30.201019 c -0.712367,-0.0088 -1.374039,0.108053 -1.470381,0.25971 -0.54124,0.851985 -0.751336,4.829937 -0.295177,5.58886 z"
       id="path1" /></g></svg>
