<?xml version="1.0" encoding="UTF-8" standalone="no"?>
<!-- Created with Inkscape (http://www.inkscape.org/) -->

<svg
   width="23.02132mm"
   height="18.407484mm"
   viewBox="0 0 23.02132 18.407484"
   version="1.1"
   id="svg1"
   xml:space="preserve"
   sodipodi:docname="marker-1-gold.svg"
   inkscape:version="1.3.2 (1:1.3.2+202404261509+091e20ef0f)"
   xmlns:inkscape="http://www.inkscape.org/namespaces/inkscape"
   xmlns:sodipodi="http://sodipodi.sourceforge.net/DTD/sodipodi-0.dtd"
   xmlns="http://www.w3.org/2000/svg"
   xmlns:svg="http://www.w3.org/2000/svg"><sodipodi:namedview
     id="namedview1"
     pagecolor="#ffffff"
     bordercolor="#000000"
     borderopacity="0.25"
     inkscape:showpageshadow="2"
     inkscape:pageopacity="0.0"
     inkscape:pagecheckerboard="0"
     inkscape:deskcolor="#d1d1d1"
     inkscape:document-units="mm"
     inkscape:zoom="11.78642"
     inkscape:cx="43.524668"
     inkscape:cy="34.785797"
     inkscape:window-width="1920"
     inkscape:window-height="1019"
     inkscape:window-x="0"
     inkscape:window-y="0"
     inkscape:window-maximized="1"
     inkscape:current-layer="svg1" /><defs
     id="defs1" /><g
     id="layer1"
     transform="translate(-55.433992,-86.315534)"
     style="fill:#ffcc00"><path
       style="fill:#ffcc00;stroke-width:0.825362"
       d="m 76.219212,86.694165 c 0.840827,0.108672 1.687927,0.356079 1.882441,0.549868 l 0.353662,0.352368 -0.459334,0.43197 c -0.74676,0.702289 -1.52911,1.936274 -2.233478,3.522818 -0.363295,0.818306 -1.011992,1.826851 -1.441547,2.241203 -0.429557,0.414352 -0.905188,1.070027 -1.056959,1.457044 -0.251858,0.642239 -1.178992,2.240649 -3.742879,6.452834 -1.056299,1.73539 -2.812502,3.25777 -3.449238,2.99002 -0.623556,-0.26221 -2.104036,-2.12627 -3.310139,-4.16776 -0.61033,-1.03306 -1.543191,-2.574286 -2.073026,-3.42493 -0.529834,-0.850653 -1.247623,-2.012826 -1.595085,-2.582601 -0.774819,-1.270563 -2.413269,-4.550782 -2.407929,-4.820739 0.0021,-0.108354 -0.278614,-0.683739 -0.623907,-1.278621 l -0.627803,-1.081616 0.250058,-0.332145 c 0.166885,-0.221673 1.060029,-0.347091 2.685212,-0.377058 1.339336,-0.02474 3.288827,-0.129785 4.332204,-0.233523 1.043376,-0.103728 2.166167,-0.103688 2.495091,1.01e-4 l 0.598043,0.18869 -0.155961,0.952166 c -0.08578,0.523686 -0.148785,1.399451 -0.140013,1.946135 0.02014,1.255387 -0.456143,2.56064 -0.927048,2.540568 -0.194214,-0.0083 -0.715799,-0.174142 -1.159079,-0.368581 -1.341761,-0.588568 -1.392691,-0.07937 -0.19751,1.974576 0.561912,0.965683 1.432395,2.562145 1.934406,3.547699 0.502012,0.985555 1.014468,1.796252 1.138793,1.801551 0.124324,0.0053 0.573039,-0.600917 0.997144,-1.347142 0.424105,-0.746234 1.407217,-2.301241 2.184692,-3.455575 0.777476,-1.154339 1.416489,-2.245142 1.420027,-2.424027 0.0049,-0.248485 -0.440822,-0.300359 -1.88897,-0.219847 l -1.895402,0.105385 0.0085,-0.429569 c 0.0047,-0.236267 0.116201,-1.239858 0.247839,-2.230216 l 0.239342,-1.800641 0.441261,-0.272714 c 0.242695,-0.150002 1.268601,-0.244821 2.27979,-0.210712 1.011191,0.0341 2.407666,0.0043 3.103278,-0.06624 0.695611,-0.07054 1.952699,-0.03937 2.793527,0.06925 z m -7.709289,2.318331 -0.05492,1.374768 1.556022,-0.05354 c 1.725013,-0.05033 1.704182,-0.121515 1.822303,0.66543 0.105219,0.700975 0.26288,1.044347 -2.204643,4.665971 -0.823827,1.209138 -1.943783,2.864797 -2.48879,3.679238 l -0.990923,1.480797 -0.978761,-1.578802 c -1.521775,-2.454713 -3.000008,-5.149223 -3.500062,-6.379892 -0.25052,-0.616553 -0.587718,-1.290114 -0.749328,-1.496807 -0.799875,-1.022999 0.03218,-0.962976 2.056487,-0.919817 l 1.277659,0.34986 0.320617,-1.43165 -0.120276,-2.008721 -3.896978,0.208685 c -2.005798,-0.124915 -3.409001,0.183815 -3.410676,0.268477 -0.0057,0.288018 2.217772,5.139649 4.518765,8.825126 1.260604,2.019092 2.658436,4.307421 3.106295,5.085151 1.081067,1.87735 1.516563,2.03937 2.620904,0.9751 1.332166,-1.28382 2.561247,-3.009543 3.608605,-5.066744 0.525946,-1.033046 1.004021,-1.876232 1.062388,-1.873744 0.05837,0.0025 0.267413,-0.406117 0.464545,-0.907999 0.245388,-0.624742 0.706952,-0.976072 1.229827,-1.775317 0.270993,-0.414227 0.932052,-1.483761 1.146869,-1.773363 0.379099,-0.511063 1.626801,-3.067917 1.466988,-3.318081 -0.09725,-0.152238 -5.624219,0.115941 -7.123561,0.09182 l -0.721034,-0.01163 z"
       id="path2" /></g></svg>
